<?xml version="1.0" encoding="UTF-8"?>
<svg viewBox="0 0 640 480" xmlns="http://www.w3.org/2000/svg">
 <g transform="rotate(31.949 336.1 244.44)" fill="#6f774e" fill-rule="evenodd" stroke-width="0">
  <path d="m351.45 37.709c-1.8165-1.3289-1.7139-3.9976-2.194-6.1008-0.46677-2.0422-1.2426-4.1782-1.4622-6.44-0.55954-5.7686 0.54739-12.913-2.5581-16.607-1.2404 0.80011-3.0095 2.159-3.654 3.7283-0.44363 1.0766-0.075012 2.6588-0.36639 4.0675-0.58823 2.8415-1.5627 4.4308-0.36526 8.1342 0.71292 2.2079 2.0703 5.171 3.2898 7.4567 0.52866 0.99163 1.5428 1.8008 2.1929 3.3891 1.108 2.7077 1.5152 5.3426 2.9245 7.7959-0.52972 1.4705-1.3696-0.75125-1.8264-1.3558-1.8519-2.4473-2.7722-7.3769-4.3868-10.508-1.8342-3.5537-4.2234-6.1976-4.3857-10.846-0.18649-5.2708 1.96-10.167 5.8491-13.219 4.5932 0.32821 4.0723 9.5348 4.3857 14.913 0.38403 6.6317 2.1829 9.9499 2.557 15.592z"/>
  <path d="m184.03 26.524h1.0976c1.8626 3.9668 2.4544 9.6855 1.4623 15.253-0.66068 3.7074-0.47992 9.7843-1.4623 13.897-1.5484-2.2029-0.40784-4.1374-0.73172-6.44-0.5423-3.858-3.1302-6.883-3.2905-10.507-0.1937-4.3978 2.0595-7.744 2.9246-12.203z"/>
  <path d="m477.2 72.281c0.59076-0.095772 0.62946 0.32026 1.0965 0.33921 1.3268 3.7463 2.8568 8.164 2.9246 12.88 0.044159 3.0649-0.60794 6.1517-0.36584 9.1507 0.10544 1.295 0.73062 2.4732 0.73169 3.7283 0.003204 3.2155-1.0696 6.9309-1.8271 9.8292-0.82425 3.1477-2.5028 5.6848-3.2905 8.1351 2.0337-1.9255 5.5168-4.2062 7.3116-7.1175 1.7087-2.7736 2.123-5.5012 4.3859-8.1341 3.425-3.9838 7.2362-6.462 11.697-9.1518 2.8795-1.736 6.9274-4.8517 11.697-2.3725 0.33466 5.6708-6.0408 6.4769-9.5045 9.1507-0.88232 0.68143-1.528 1.9744-2.5588 2.7117-0.38306 0.27437-1.1503 0.11274-1.4612 0.33921-2.6814 1.9485-6.4894 4.0756-9.5045 6.1008-2.802 1.8826-4.7744 3.1686-7.3116 5.4234-1.4526 0.89193 0.57999 1.285-0.36584 2.3725-0.64993 0.64051-2.6782 0.001984-2.5588 1.3558 2.2069 0.6046 4.4364-0.97772 6.5799-1.695 2.2263-0.74429 4.488-1.1533 6.9457-1.6951 7.3159-1.6103 18.707-5.17 27.051-1.6941 1.6054 0.45196 3.0214-1.0146 4.0211 0 0.23676 4.6811-5.1326 4.4277-10.236 4.4068-3.3249-0.013985-7.4794 0.58666-11.697 0.67742-8.3026 0.17859-16.652-2.7746-21.202 2.0343-1.1341 0.033928-1.7464-0.41503-2.5588-0.67843-0.5563 1.1803-1.3881 2.1021-1.4623 3.7283 3.4788-0.5078 6.8199-1.5594 11.697-1.3549 10.55 0.44199 23.77 2.5561 28.148 8.1341-2.4308 3.9109-7.2158 1.7759-12.429 0-2.9569-1.0077-6.1376-1.5454-8.7728-2.3725-6.2743-1.9704-10.755-5.4553-19.009-2.7117-6.086 5.8803-6.0483 17.44-10.235 25.082 1.8766 0.12772 3.0258-1.3928 4.7517-2.0333 2.2553-0.83606 5.3672-1.1464 8.407-1.6951 8.9073-1.6053 19.325-1.6092 29.975-0.3392-0.9964 1.5993-3.0215 1.5983-4.7517 2.3725-1.4623 0.65448-2.7848 1.9365-4.387 2.3725-11.03 3.002-25.966-4.9066-34.362 1.3558-1.0352 2.0912-1.5247 4.6871-2.9246 6.4401-1.7065-0.43802-0.23029-3.2235 0-4.0676-1.5484-5.9013-2.8439-11.159-5.1186-16.269-2.2445-5.0453-5.4704-9.2515-6.214-14.913-0.59717-4.5494 0.38846-10.986 1.0975-16.269 2.674 1.6442 3.07 5.156 4.0211 8.1341 0.97705 3.0599 1.3644 6.3462 2.1929 9.491 0.74783 2.8354 2.5243 5.575 2.9246 8.4733 0.86835 6.2744-0.54016 12.003 1.8271 17.625 4.4171-6.2944 4.6021-15.508 8.408-22.37 0.73065-1.317 2.4404-2.6907 2.9246-4.0676 0.41748-1.1852-0.18295-2.3176 0-3.3891 0.13556-0.79414 0.85971-0.70137 1.0964-1.3558 0.30667-0.84502-0.83069-1.8308 0-2.3725 3.0183-3.3283 2.4221-10.625 0.73172-15.591-0.76401-2.2448-2.2338-4.0047-2.5588-6.44-1.0749-8.0662 1.9864-13.136 3.2905-20.676 0.13016-0.44595 0.64343-0.53376 0.73169-1.0176z"/>
  <path d="m354.74 149.9c-2.8805 0.64847-5.1907-0.62158-8.0422-0.67844-7.9755-0.15964-16.41 3.3302-24.127 3.7283-1.529 0.078827-3.9092 0.69339-5.1176-1.0166 6.3518-3.9079 17.555-6.6835 28.148-5.0842 3.5402 0.53476 6.7693 1.4526 9.1387 3.0509z"/>
  <path d="m355.11 151.25c-0.14523-0.65851 1.6657-0.49588 1.0976 0.3392h-0.73169c0.066681-0.28836-0.1431-0.32025-0.36588-0.3392z"/>
  <path d="m260.43 185.49c1.1427 0.97376 1.2278 2.9292 1.0964 5.0842-1.1255-0.85702-1.7593-3.6635-1.0964-5.0842z"/>
  <path d="m260.8 191.59c7.9001-2.0432 6.4464 11.242 1.4623 11.524-5.6115 0.31827-7.0361-10.083-1.4623-11.524zm0.7306 5.0842c1.2181-0.65948 1.0039-3.7972-1.0964-3.3891-0.31634 0.94479-1.1567 3.863 1.0964 3.3891z"/>
  <path d="m445.77 204.13c0.44974 0.14768 0.74994 0.43399 0.73166 1.0166-1.2686 0.29633-1.2557-0.52179-0.73166-1.0166z"/>
  <path d="m216.2 221.08c-1.5946-2.0492-2.7761-4.4237-2.1929-7.1174 0.78439-3.6266 5.7707-4.6472 8.0422-2.0343 2.5286 2.9112 0.89416 11.554-5.8493 9.1517zm1.4623-4.7459c1.1772-0.91489 1.5925-3.4061-0.73059-3.3891 0.3497 1.0306-0.78336 3.437 0.73059 3.3891z"/>
  <path d="m260.43 210.57c3.5746 0.84503 7.9755 0.52078 12.794 1.0176 5.6104 0.57767 9.6831 3.5198 15.718 4.4067 0.49606 0.072845 2.1456-0.58063 2.1929 0.67746-2.3898 0.003967-4.1319-0.015961-6.214 0.6774-1.5968 0.53278-1.9164 1.8098-4.3869 2.0343-2.364 0.21448-5.3242-1.2401-8.407-2.0343-5.4436-1.4017-9.9618-2.2817-11.697-6.7792z"/>
  <path d="m371.56 231.24c0.47772 0.61557 1.0405 2.0453 0.36475 2.7117-1.5753-0.024933-1.1922-2.2358-0.36475-2.7117z"/>
  <path d="m186.95 239.72v1.0166c-1.7754 0.55472-3.467 0.47693-5.4834 1.0167-4.2556 1.1414-7.2158 3.3652-13.16 3.3891-1.4935 0.007019-3.4002-0.10876-5.1176-0.3382-4.2104-0.56271-10.061-1.4496-10.967-4.745 2.1499-0.79214 3.7575 0.18958 5.8493 0.33923 9.1612 0.65448 18.46-2.588 27.782-0.67746 0.36475-9.77e-4 0.73062-9.77e-4 1.0965-9.77e-4z"/>
  <path d="m292.96 244.8c-2.8439 2.3795-3.3528 6.2036-5.1176 9.1508-0.86188 1.4386-1.9831 2.6448-3.2904 4.0675-2.9956 3.2584-5.6717 5.163-10.601 7.1175-1.1524 0.45694-1.8572 1.7519-3.2905 1.0176 5.2316-6.448 8.9052-14.339 17.911-17.286 1.8184-1.0266 1.6033-3.9379 4.388-4.0676z"/>
  <path d="m291.87 251.24c1.5075 1.2002 0.98459 4.284 2.193 5.7616 3.8801 0.93182 5.506 6.1936 3.2905 9.8301-1.9842 1.2062-5.1487 1.9335-7.3105 0.3392-1.0738-3.3711-1.8163-4.8676-0.36581-7.4576 0.61118-1.0895 2.5997-1.5005 2.9246-2.3725 0.088226-0.23746-0.71341-0.52478-0.73172-1.3559-0.022583-1.0545 0.14206-3.438 0-4.745zm-0.3658 10.168c0.46808 0.46295 1.7259 0.46295 2.194 0-0.04306-0.86499-0.068878-1.7439-1.0965-1.695-0.11298 0.7991-1.2697 0.63052-1.0975 1.695z"/>
  <path d="m446.13 339.03c-1.529 4.6691-5.6696 7.769-8.407 11.524-1.4246 1.9535-2.5437 3.9488-4.0211 5.7616-1.4053 1.723-3.6046 2.9551-5.1176 4.745-0.98776 1.1683-1.3149 2.9042-2.194 4.0675-0.5509 0.72836-1.6549 1.0416-2.1929 1.6941-1.4914 1.8078-1.8863 4.0376-3.2905 5.7617-1.2858 0.84103-2.4964 1.7519-2.9246 3.3891 3.2948-0.43698 5.0767-3.7872 7.3115-6.44 3.0581-3.6306 7.7646-9.6925 13.89-10.507 2.0402-0.27139 4.8281-0.26639 5.8493 1.3549 0.38199 3.5797-3.8737 4.314-6.214 5.4234-7.7441 3.6714-14.725 8.9482-21.932 13.219 2.3102-0.17761 4.9766-1.8298 8.0422-3.0509 3.0903-1.2312 6.2441-3.1467 9.5045-3.7283 2.7277-0.48691 6.8994-0.6535 8.7728 1.6941-3.8382 5.9771-12.084 6.1587-20.47 7.4577-2.5706 0.39706-5.8148 0.52875-7.6774 1.3549-2.2446 0.99768-2.1466 2.9861-3.6552 4.7459-0.40244 0.47095-1.4913 0.7373-2.1929 1.3549-1.7776 1.5644-1.317 2.3665-4.3859 2.7117-2.7793 2.7337-5.3768 5.6339-9.5045 7.1185-1.4806 3.8241-6.0031 4.8278-7.6774 8.4733 3.8694-0.060822 7.3492-1.8966 10.967-3.0509 5.477-1.7479 11.39-3.7074 17.912-3.3891 3.6972 0.18057 7.2352 1.6362 10.966 2.0333 1.8368 0.19553 3.6423-0.86996 5.1176 0.33923-1.7539 1.8307-4.8927 4.3349-8.0422 4.4057-1.1944 0.026978-2.463-0.90686-3.6552-1.0166-1.7195-0.15762-3.4293 0.5437-5.4834 0.67841-5.0961 0.33325-10.859-1.1513-15.719-1.0176-3.8704 0.10672-7.5375 1.8886-10.601 2.3725-0.25504 1.0376 2.6664 2.0402 1.8271 4.745 1.7335 0.9917 3.8726 1.6063 4.7528 3.3891 0.27872 3.7613-0.46805 6.5717-1.8281 8.8125-0.91141 0.28537-1.9584 0.44296-3.2905 0.33923-0.59827 1.0266-0.41321 2.7795-1.4612 3.3891-5.3446 2.6359-7.7248-4.3938-5.4835-8.4733 0.28839-0.52374 1.1869-1.2362 1.4613-2.0342 0.47672-1.3828-0.004303-3.1387 0.36584-4.0666 0.72846-1.8237 3.0419-2.6438 2.5588-3.7283-0.1076-0.69037-0.98889-0.66446-1.0965-1.3549-9.965 1.724-12.696 11.949-23.03 12.201 1.3601-1.9006 4.1222-2.2019 6.214-3.3881 2.0789-1.1802 3.921-2.4223 5.1175-4.4067-0.33462-5.626 2.0961-12.581 0.36588-17.963-0.57138-1.7789-2.3942-3.9768-3.6553-5.0852-2.5674-2.2538-6.6014-2.8025-9.1375-5.0842-1.6711-1.5015-2.1467-3.5138-3.6552-5.0842 0.79843-2.5311-1.0265-4.7878 0.73062-7.1174 2.0821 0.10373 1.995 2.2178 3.2905 3.0499 3.5326 1.6991 8.2822 3.6276 11.333 6.7793 0.66824 0.69037 1.2913 2.1969 2.1929 3.3891 1.6528 2.1849 3.454 3.6355 3.6552 7.4567 0.32712 6.1846-3.7854 10.847-3.2905 17.964 1.6754-0.14163 1.9336-1.5973 2.9246-2.3725 5.2327 0.032928 6.2205-4.6632 9.1386-7.4577 0.60577-0.58066 1.9379-0.78418 2.5587-1.3549 1.1374-1.0456 1.5345-2.5201 2.5588-3.3891 1.4117-1.1962 3.4196-1.6172 4.7528-2.7117 2.2564-1.8517 3.3077-4.6213 6.214-5.7616 1.2407-3.2974 2.476-5.9173 1.4612-9.1518-0.90814-2.8963-4.331-4.6921-5.1176-7.1175-0.43689-4.2062 1.3203-7.1913 3.2905-9.8301 1.2966-1.737 3.0236-4.0606 5.1176-4.4058 0.42288 3.7104-1.3568 7.6433-1.4623 11.864-0.1431 5.7097 1.4387 11.975-1.4612 16.947 3.0473-0.58368 3.5982-3.1776 5.4834-5.7616 1.9035-2.61 4.6064-4.9835 5.1176-9.1517 0.81885-0.37116 1.8313-0.56073 2.5598-1.0176 1.5387-4.1085 3.3701-7.9475 6.213-10.846 0.048401-6.3812 4.048-11.109 7.3116-15.252 2.6804-3.4031 5.5534-4.5863 9.5045-7.1185 1.43-0.19452 2.122 0.29336 2.9236 0.68045zm-59.949 79.312c1.7981-1.3838 2.7751-3.5278 3.6552-5.7616-0.077454-0.3811-0.40677-0.52774-0.73166-0.67841-0.91898 2.0951-4.3568 3.2465-2.9236 6.44zm5.8482 1.6941c1.1212-1.1473 1.4882-3.4799-0.73169-3.7283-0.47452 1.0924-0.78659 3.5198 0.73169 3.7283zm-2.9246 5.4234c0.008575-0.54175-2.3909-6.1028-3.2905-5.7616-2.5588 1.4307-2.0262 8.5023 1.8271 8.1341 0.95337-0.39008 1.4483-1.3918 1.4634-2.3725z"/>
  <path d="m289.67 354.28c0.17108 1.8767-2.8267 2.1939-2.9246 0.33923 0.53156-0.5238 1.8712-0.29834 2.9246-0.33923z"/>
  <path d="m306.12 361.73c1.3891 0.002991 1.345 1.3239 2.194 1.6941 1.8679 0.81412 5.3951 0.29932 8.408 0.67841 3.921 0.49188 9.27 1.4975 9.5045 3.3891 0.37769 3.0509-5.5254 2.5411-7.6763 2.0333-1.1998-0.28332-2.6351-1.3897-4.387-2.0333-3.1915-1.1743-6.7348-1.7778-8.0422-4.4067-0.001038-0.45196-0.001038-0.90289-0.001038-1.3549z"/>
  <path d="m293.33 378.34c-1.3601 4.2751-4.8765 6.5498-6.5799 10.507 5.9622 1.8308 8.4489-3.5896 12.795-5.7616 2.1908-1.0954 5.3511-2.8593 9.1387-2.7117 3.6305 2.9532-1.8518 5.0633-5.4834 6.7793-2.5222 1.1912-5.1154 3.5038-7.6763 4.4057-2.3705 0.83508-4.9744 0.58966-6.5799 1.0177-3.0742 0.81711-6.0623 3.3742-9.1386 2.7117-1.7077 0.10974-1.5818 1.9225-3.2905 2.0333-0.15924-1.3688 1.9035-3.3662 3.6552-4.0675 2.9343 1.7869 10.742-1.4167 6.214-3.7273-1.7151 0.62952-3.1441 3.0868-5.8492 1.694 0.72202-2.4573 2.8192-7.6712 5.1176-10.507 1.515-1.8686 4.7183-5.0134 7.6774-2.3735z"/>
  <path d="m272.86 394.95c-0.44867 2.9342-3.7402 3.1596-6.5798 4.4058-4.7248 2.0732-8.8536 5.9651-13.526 6.44 0.040833-3.3283 2.5609-3.8281 5.1175-5.7616 1.0502-0.79419 1.6786-2.1171 2.5588-2.7117 0.83389-0.56268 4.7507-2.6738 5.8493-3.0509 2.2327-0.76721 5.4522-1.3498 6.5798 0.67844z"/>
  <path d="m378.14 464.77c6.8328-0.30627 5.1284 11.743 1.4623 12.54-7.9475 1.733-5.0185-10.91-1.4623-12.54z"/>
  <path d="m407.38 142.1c1.395-0.16388 2.3319 0.095856 2.9246 0.67825 0.030884-3.6995 0.49442-6.9981 1.4612-9.8297-0.224-4.484-4.5291-5.8096-7.3102-8.4732-1.3232-1.2658-2.9984-3.548-4.3879-5.0839-5.2675-5.824-9.7636-16.769-7.6756-27.115 2.7391 1.9214 3.4488 5.5632 4.751 8.4732 1.3033 2.9089 2.4643 6.058 4.0215 8.8123 1.9468 3.4429 4.293 6.6569 5.4838 10.168 0.70297 2.0781 0.48886 2.9491 1.8264 4.7448 0.85419 1.1462 1.449 2.3121 3.2909 3.0512 0.047485-2.676 0.99988-4.9746 1.4623-7.4568 1.1168-5.9807 0.16223-12.712 1.0959-18.642 0.3653-2.31 1.2018-5.0612 1.8286-8.1341 0.59155-2.9048 1.0484-4.6005 0.73169-8.1338-4.9629-7.1314-10.672-15.332-9.8706-26.438 0.31012-4.299 1.1445-8.5631 2.5593-12.88 1.9346 1.4027 2.8969 5.4114 3.6551 8.134 0.59155 2.1281-0.2836 5.2169 0 8.1341 0.28253 2.9322 1.5649 5.595 1.8264 8.4733 0.38739 4.2592-0.045227 8.3886 1.8287 11.864 1.8055-4.343 2.5824-9.4251 4.0204-14.236 0.37302-1.2471 1.268-2.3834 1.4622-3.7283 0.38516-2.6688-0.63455-5.2977 1.4612-6.7793 1.8441-15.237 6.8997-27.495 21.933-30.504-0.58932 4.6502-5.1141 5.6519-7.6755 8.4734-1.1279 2.7965-3.3329 4.5934-4.0216 7.7958-3.2832 2.0413-4.7267 5.6849-6.5796 8.8125-1.8783 3.1697-4.0347 6.6236-4.3857 10.847 2.7524-2.3794 4.9938-5.3346 7.3103-8.1351 2.3198-2.8045 4.048-6.0839 6.5796-8.4733 5.092-4.8038 12.098-7.5445 20.836-9.1507-0.90274 2.8184-4.2246 4.1154-6.5797 6.1008-3.004 2.5322-7.4769 4.308-11.332 6.7782-7.51 4.8138-14.226 9.2215-17.546 17.963 0.15671 4.1005-2.5493 5.5452-2.5592 9.49 3.8538-0.27338 4.0403-4.3699 5.1174-6.7782 2.1884-4.8946 5.9871-9.8202 9.8706-13.558 1.853-1.7839 3.7434-4.1324 6.5796-5.0842-0.38184 3.2615-2.6398 4.7829-2.9256 8.1341-5.0114 6.7642-11.323 12.323-16.814 18.642-0.7648 0.19554-1.044 0.84-2.194 0.67837-1.1798 2.4134-1.1952 5.5911-0.3653 8.4733 12.728-2.3914 22.043-14.011 36.921-10.508-0.13132 1.738-2.4367 1.7999-3.6562 2.3725-2.9124 1.3688-5.646 2.2648-9.5042 3.7284-4.9618 1.8836-11.022 4.9664-17.911 5.423-2.9102 0.19276-5.3922-0.47417-6.946 1.3565-2.0185 11.912-3.2027 24.597-4.3857 37.283 5.6129 0.14019 6.5885-5.321 9.5053-9.4895 4.5755-6.5456 10.347-13.352 16.814-18.303-2.7822 14.144-14.304 23.117-25.953 30.166-0.050781 0.62982-0.2417 1.1318-0.73169 1.3555-1.5892 11.112-2.7502 21.738-1.4622 33.555 1.1245 0.91022 1.6366-1.6307 3.2898-1.3555 0.73944 0.31131 1.7161 1.1617 2.5593 2.3729 0.77582 1.1122 1.9842 3.7346 1.8275 4.0675-1.3839 2.9615 2.8351 1.0462 4.7521 3.7284 2.7866 3.8954-0.33658 11.515-5.8491 8.1341-0.74054-1.2669-1.417-2.6203-1.4612-4.0675-0.081665-2.6183 1.3872-3.8325 1.0959-6.7796-0.15228-1.5441-0.63788-4.6613-2.9245-6.1013-3.1033 1.1091-3.0923 7.73-3.2898 11.862-0.23068 4.8221 1.2824 10.355-1.4612 13.897 1.5031 2.141 3.7942 3.28 5.4827 5.0839 2.0593 2.1997 3.2159 4.7211 4.7521 7.4568 0.586 1.0422 1.6653 1.9709 2.1939 3.0512 1.6278 3.3305 1.7117 7.4774 4.3857 10.507 1.1776-6.5909 0.78467-14.638 2.9245-20.337 1.3641 2.4482 4.4751 3.3079 5.8491 6.1013 1.9368 3.9376 0.85971 9.2194 1.8286 14.574 2.8539-3.3408 3.3362-8.8824 6.945-11.522 1.0363 0.35251 1.523 0.35251 2.5593 0 0.1247 4.2964-0.97119 7.4589-1.097 11.522 1.5914-1.673 4.7411-4.9953 7.6755-6.7775 1.1522-5.3406 1.0286-11.515-2.9245-13.897-0.97778-4.4685-2.695-8.6237-5.4827-11.523-1.7967-1.8678-4.3272-3.2944-6.5797-5.0839-2.067-1.6431-4.2179-3.3841-6.2144-5.0839-6.0709-5.1674-13.07-9.5421-14.623-18.981 3.0007 0.96585 3.7401 3.8346 5.8502 5.7611 3.2148 2.9378 7.8808 5.4034 11.697 8.4742 3.5204 2.8316 8.672 6.6239 10.602 10.168 1.2923 2.3739 1.5064 5.256 2.5581 7.7949 0.97778 2.3606 3.0294 4.1603 3.2909 7.1177 0.81116 0.71643 1.9876 1.0958 2.5581 2.0338 1.2438-5.5436 2.429-12.598 2.194-18.302-0.17438-4.2273-2.6442-7.1909-5.4838-9.8297-2.7601-2.5667-6.9736-4.4654-10.235-7.1166-1.5461-1.2566-2.8815-2.7646-4.3879-4.0675-2.5747-2.2276-4.3261-3.5161-6.5796-6.1013-1.5671-1.7998-4.9728-4.6963-3.6552-8.134 3.3296 1.4132 5.4518 4.1552 8.4084 6.1013 2.8892 1.9008 5.9771 3.3356 8.4072 5.7611 5.5599 5.5478 8.8133 12.513 13.89 18.642 2.802-4.0758 0.6853-9.4483 0.36639-14.914 4.7598-3.7336 11.222 0.61743 14.987 4.7448 2.0682 2.2668 3.898 5.6519 5.8502 8.4732 1.4292 2.0688 3.2876 3.378 2.9245 7.1177 0.22626 1.2586 1.4965 1.5503 1.097 3.3893-2.7005-0.17627-4.4464-2.6007-6.2133-4.4067-1.7492-1.7864-3.9586-3.7006-5.4838-5.7622-1.757-2.3719-2.9753-5.4179-4.7532-7.7949-1.7956-2.4018-3.8328-4.8427-6.5786-6.1003-1.3376 0.91843-1.0804 2.9254 0 3.7284 0.80673-0.72052 0.19424-2.7574 2.1929-2.3729-1.3309 7.9155-3.2071 16.804-2.9245 24.403 5.2509-2.1822 10.709 1.5905 10.965 7.1177 6.1713-1.1968 15.508-4.0181 23.031-3.7284 2.4643 0.095886 6.4715 0.85144 6.9438 2.712 0.298 1.407-2.2524 0.1701-2.5581 1.0174-6.829 3.4975-18.724 2.2977-25.954 5.423 1.6212 3.211 5.9297 3.7666 8.7736 5.7622 2.3429 1.6441 4.0138 4.0562 5.1174 6.7786 1.8883 1.2988 4.1385 2.2646 5.4827 4.0675 1.5285 2.7038 0.60037 5.7312 1.0981 8.4732 0.44916 2.4667 2.557 4.685 1.8275 7.1177 0.85751 1.2503 2.4577 0.98132 3.2899 2.3719 1.6763 2.8028 0.14014 7.0424-1.8265 8.8123-1.7282 0.134-3.0514-0.10825-4.3879-0.33914-2.9312-2.6749-2.2028-9.5483 1.8287-10.506-0.96457-5.5468-2.0759-10.956-3.2909-16.269-1.1235-0.088654-1.6433-0.73599-2.5582-1.0174-0.341 0.62878-0.65884 2.5956-0.36639 3.7284 0.26047 1.0112 2.2977 1.739 2.9246 3.3893 1.5737 4.1428-0.55514 8.4917-4.7521 8.134-4.9541-0.4216-4.7676-9.9152 0.73169-11.185-0.041931-3.4666 1.0208-6.0704-2.1929-6.7775-1.694-6.6765-10.024-7.2012-13.526-12.202-5.9528 0.46692-8.9513 3.6748-12.794 6.1002v4.7448c4.9993-2.5956 10.774-4.4716 17.911-5.0839-0.19092 1.3503-1.6267 2.5059-2.5603 3.3893-3.0956 2.9326-7.3963 5.0674-12.062 7.1177 4.8845 4.3953 9.9048 8.667 13.159 14.574 5.5014 0.32159 12.464-0.71124 13.891 3.3892-3.0802 1.6637-7.734 1.8678-10.601 3.7284 1.1566 1.2225 1.8155 3.4254 1.097 5.423-3.6331-0.02063-4.3129-2.7801-6.5797-4.0675-4.1175 0.70404-10.502 1.1071-14.988 0.34015-1.8673 1.206-4.2566 1.9276-6.946 2.3719 0.16223-1.2772 2.0714-1.5348 3.2909-2.0338 1.1411-0.46695 2.6078-1.2133 3.6551-1.3565 2.9433-0.39993 6.4141 0.55664 9.5042 0.33914 5.6328-0.39584 10.664-2.4296 15.354-3.7284 1.5053-0.41644 3.4355-0.50098 4.3857-1.6936-0.63675-1.6843-3.153-1.5596-4.7521-1.6946-9.6113-0.81229-19.069 1.4297-24.859 4.0675-1.5792 1.1339-1.8938 3.4408-4.3868 3.7284 1.9755-5.5127 9.0616-6.2858 14.988-8.1351-3.419-3.9459-5.0633-9.539-8.0419-13.896-1.843-0.014435-2.3882 1.1741-3.6552 1.6946-1.0274 5.3736-3.0823 9.7957-5.4838 13.897-0.32559 3.5387-0.71515 7.0198-2.5581 9.1504-1.8342-8.6278 4.3548-14.981 6.2133-22.369-2.6045 0.1835-3.9277 1.5534-6.5796 1.6946-0.55734 3.0336-0.75598 5.7601-1.8264 8.4732-0.98334 2.4873-3.1409 4.3304-4.0216 6.4404-1.1555 2.7677-1.0539 5.791-2.1928 8.4732-1.0341 2.4358-2.4169 4.3582-3.6552 6.7796 0.9679 5.0344-0.70627 9.1514-2.5592 12.54 5.3988-3.4697 10.414-10.229 13.159-17.286 0.31229-1.405-0.83984-4.1675 1.097-4.0675-0.035278 2.2781-0.22293 2.8924-0.3653 5.4241 1.4303-1.3854 0.039764-5.3859 1.8276-6.4404 1.3254 0.12573 0.40832 2.3327 1.8276 2.3729 3.0227 0.41748 6.2022-0.54941 9.5042 0 2.4191 0.40201 6.7364 3.0687 10.235 4.7448 3.7026 1.7719 7.6943 3.2429 10.237 4.7448 2.7016 1.5956 5.6372 4.7396 6.2133 8.134-1.4524 0.83389-3.3296-0.401-4.3868-1.0174-4.3857-0.1268-7.9459-2.4729-11.332-4.4056-5.56-3.1738-11.132-5.4941-14.622-10.507-2.1343-0.61951-5.7707 0.1536-7.3113-1.0174 0.13354 2.2533-0.92813 4.4953-1.8276 6.4405-2.067 4.4685-3.6904 7.1898-6.946 10.845-1.427 1.605-3.0956 3.7201-4.3857 4.7448-1.0661 0.8494-2.578 1.2803-3.6551 2.0348-6.306 4.4077-11.67 9.503-16.45 15.252 4.3018 0.83395 7.1281-3.3388 9.8706-5.0849 1.8816-1.1978 4.0292-1.7586 6.5797-2.3719 4.6627-1.1236 9.7161-2.7409 15.719-2.712 4.5876 0.022675 8.6346 1.4823 12.43 3.0512 1.7845 0.039154 3.8515-0.1835 5.1174 0.33914-1.1566 4.2366-6.1073 3.6954-11.698 4.0665-10.566 0.70196-22.811 2.9656-33.631 3.7284 3.5978 2.7656 7.9106 4.8674 9.8706 9.1515 1.5638-1.036 2.9576 0.078308 4.7521-0.33914 1.4027-0.32574 2.5184-1.8235 4.0204-2.0338 4.8966-0.68652 9.7194 4.2232 14.256 0.67825 1.0131 0.75662 1.3663 2.1245 2.5593 2.7121 2.7402-1.3668 5.8413-2.6976 9.5042-3.7274 3.7633-1.0597 8.0662-0.5958 11.332-1.6957 3.43-1.1545 5.0059-4.2984 7.3113-6.1003 0.34323-3.516 2.2701-5.8694 4.0215-9.1514 2.3088-4.3304 3.4477-5.5674 7.3103-8.4732 2.2866-1.7194 4.3669-4.2428 8.7725-3.0512-5.3138 11.002-14.353 18.551-23.394 26.098 6.9726 0.91226 11.603-4.7396 17.546-7.4568 3.6518-1.6688 6.9471-3.0594 10.966-1.0174 0.071747 2.81-1.8143 3.6985-4.7521 5.085-4.3272 2.04-10.533 3.6954-17.547 3.7274 1.3431 1.4679 4.5932 1.1658 5.8491 2.712v3.0512c-4.1197 2.0544-10.375 2.1306-15.353 3.3882 8.0508 1.2308 16.433 2.7378 23.76 5.085 4.5369 1.4524 9.1709 3.2078 10.237 7.1177-3.2667 1.6534-7.3522 0.66177-11.332 0.33911-5.0379-2.4976-11.144-3.5872-16.817-5.0849-5.6957-1.5029-9.6874-4.8757-13.89-7.4568-3.3284-0.30405-7.106-0.1886-9.8705-1.0174 0.71182 1.7142 2.9543 2.007 4.7521 2.712 2.8671 2.5275 7.6435 7.2981 5.4838 12.202-2.0483 0.57312-3.5679-2.0523-6.5796-1.6936-0.10815-0.69064-0.73279-0.90298-1.097-1.3565-5.3105-1.3421-9.2581-4.1366-13.159-6.7785-3.8825-2.6296-6.6525-6.3137-10.966-8.4732-1.8452 1.4668-3.6639 1.3617-6.5796 1.3555-0.001099 2.0348 1.8132 2.3873 1.4623 4.7448-0.96677 0.64838-3.356 0.35358-4.3868 0 0.17767 1.4163 0.84091 2.3832 1.4623 3.3893 4.2996-0.18762 7.1303 0.071136 10.965 1.0174 3.6827 0.9071 7.1369 1.976 10.236 3.3892 1.7658 0.80508 4.7234 1.7627 4.3857 3.3883-0.76373 3.6985-10.2 0.47827-12.428-0.67725-0.66876-0.34842-1.5395-1.1628-2.1939-1.6956-2.077-1.6885-4.8448-4.1748-9.1389-4.0665 0.099304 1.8853 3.7335 3.2769 3.2909 6.7785-1.6466 1.3627-3.4178 5.4231-2.9245 8.1341 0.39069 2.1502 2.269 2.6255 3.2898 4.0675 0.86414 3.4882 0.015442 6.8703-1.8265 8.8124-8.4524 2.779-8.8254-10.256-2.1939-10.846-0.21741-1.4483-0.5209-2.7058-0.3653-4.0675 0.29688-2.6007 2.5151-5.49 2.1928-7.7949-0.23062-1.6514-0.81445-1.2988-1.8275-2.3719-2.258-2.3925-3.6949-7.3156-6.5786-8.8123-2.3551-0.18964-3.7026-1.3122-5.8502-1.6956 0.088318 2.8594 2.3363 5.5117 1.4612 8.1351 4.8702 1.2947 5.507 9.8895 1.4623 12.201 1.8728 3.7913-2.0847 7.3722-1.4623 10.169 0.42709 1.9193 2.2513 2.0492 4.0215 3.3882 1.5892 2.812 1.1202 7.5012 0 10.507-7.8896 6.3435-12.626-10.286-4.7532-11.864-1.7338-4.1273 1.64-7.4805 1.0981-11.524-1.0065-0.53497-2.5361-0.58551-3.6552-1.0174-1.2835-1.6328-2.2657-3.548-2.1928-6.4384-1.3386 0.24429-2.6994 1.6514-4.7532 1.3545-4.9088-0.71024-5.2057-9.5803-1.8276-12.54 0.5827-1.1555 3.9299 0.25464 3.2909-2.0348-2.3175-0.50507-4.0204 1.8812-5.8491 3.0512-1.8828 1.206-4.506 1.8524-5.4838 3.7284-0.26157 0.9205 1.7238-0.24222 1.4612 0.67825-0.070648 1.3091-0.012146 2.4976 0.36639 3.3882 0.31342 1.0071 1.2482 1.0772 1.8264 2.0348 1.1433 1.8853 0.89725 4.8911 1.8287 7.1166 0.11145 1.3843-0.7626 0.1814-1.4623 0.33914-0.70078 3.045-0.7074 5.4261 1.097 8.4742 0.93475 1.5792 2.929 2.376 3.2909 3.7274 0.97226 3.6428-0.93805 6.6435-3.2909 8.8133-1.7437 0.2608-2.3529-0.52982-4.0204-0.33914-3.6982-2.5234-2.4555-10.862 2.194-11.524 0.033112-2.0327-1.054-3.4748-1.0981-5.4241-0.093781-4.1325 2.4688-7.4877 0.36639-10.507-1.087-1.5586-3.238-3.0904-4.3868-5.085-1.5936-0.00824-2.002 1.0823-3.291 1.3565 0.55292 1.5678 0.49442 3.2914-1.0959 3.7274-1.3961-0.17627-1.864-1.2091-1.8287-2.7121-1.736 0.31131-3.5955 0.50821-5.1174 1.0174 1.9468 2.6038 4.8569 7.2465 5.1174 12.541 2.0108 1.5246 5.6714 1.5204 6.5797 4.0675-1.4865 3.0285-6.7022 0.61743-7.3102-1.3555-1.3486 2.0925-0.26932 5.8488 0 8.4732 3.5558 2.6563 6.2011 12.71-0.73169 13.219-6.4362 0.47107-6.8545-10.155-1.097-12.202 0.35867-5.8364 1.6764-14.298-0.73169-19.319-2.1299 0.91849-0.32224 3.5656-2.194 4.4067-1.1808-0.46283 0.59927-4.6046 1.0981-5.7622-0.19421-0.27212-0.38074-0.55048-0.36639-1.0174-0.62683-1.339-2.3374-1.673-3.2898-2.712-1.843 0.32471-3.0548 1.2359-5.4838 1.0184-0.9469 3.8665 2.2966 5.1674 0 8.4732 1.1786 1.8482 3.2115 0.52777 4.7521 1.6936 2.4875 1.8843 1.6422 5.8384 0.36526 8.4732-1.726 0.67517-4.485 0.34738-5.8491-0.33911-1.694-2.4018-0.72284-5.6581 0.36639-8.1341-1.9424-0.33499-3.7776 1.7617-4.3868 3.7284 2.1322 2.3688 3.1773 6.5899 1.4622 9.8297-7.532 5.8817-11.564-9.9885-2.9245-9.4906 0.68094-3.8872 4.261-5.088 5.8491-8.1351-0.42047-1.7575-1.321-3.0687-1.0981-5.423-3.2214 0.036041-5.1151-2.2636-8.0419-2.3729-1.5472-0.057739-2.6961 0.94626-4.3868 1.3565-1.3574 0.32883-3.2148 0.37109-4.7521 0.67725-2.7744 0.55456-4.8338 1.608-8.4072 0.67825-6.9328 6.2137-13.921 12.92-21.201 19.319-4.7974 4.216-11.025 6.6775-15.354 11.524 5.3337-0.20099 12.189-0.55249 16.085-1.0174-0.017639 3.0192-4.0524 1.571-6.2144 1.6946-3.7059 0.2113-8.4447 1.5668-11.332 0-4.8294 6.0302-13.57 8.4309-18.277 14.574 2.6696 2.5265 4.7046-2.0348 7.6766-2.3729 4.037-0.45975 10.801-1.273 13.525 1.0164-2.482 5.6117-13.09-1.6544-15.719 2.0348 0.39069 0.66385 2.1686-0.22369 2.5593-0.67825 1.1533 2.5461 5.2829 2.3317 7.6766 3.7274 8.4503-3.6944 20.84-3.9098 31.072-2.0338 4.612 4.2263-5.4142 4.9499-11.697 4.4067-1.9644-0.16904-4.677-1.2349-6.946-1.3555-3.9576-0.2103-10.463 0.66898-13.159 0.67825-0.87625-0.88339-1.6079-1.8998-2.9245-2.3729-1.491-0.25253-1.2592 1.0926-2.9245 0.67725-1.8154-2.4956-8.1038-0.84524-10.601-2.711-1.4733 0.32675-2.0615 2.1245-4.0215 1.0174-5.4474 6.2466-14.313 9.3256-18.277 16.946-5.0545 2.544-7.488 7.5187-12.794 9.8307-1.8761 2.4399-2.9146 5.6581-5.4838 7.4568-2.1796 4.4551-3.7268 9.5937-5.8491 14.574-0.59378 1.3947-1.0893 3.3882-2.9246 3.7274-0.8674-2.5615 1.2592-5.1128 2.5582-6.7785-0.24063-1.0184-1.4049-1.1823-1.097-2.711 0.43262-0.39169 1.2923-0.38449 2.194-0.33914 0.29135-3.346 2.6321-4.7912 2.5592-8.4732 1.4501-1.9317 3.4543-3.3501 4.0204-6.1013h1.4622c2.1951-2.71 4.8559-4.987 8.042-6.7795-0.97559-0.9906-2.4654 2.2069-3.2888 1.3565 0.27152-2.2337 2.7657-2.4069 3.2888-4.4057 1.5406-0.37518 1.683 0.67416 2.9256-0.67929 0.86523-0.55353 0.77802-1.9894 1.4622-2.711 0.77918-0.15878 0.69528 0.48343 0.73172 1.0164 4.1727-5.2818 10.677-8.402 14.622-13.896 2.823 0.88547 3.2622-2.3585 5.1174-3.3882 1.6334 0.079346 2.5548-0.54324 4.0216-1.3565 0.19751-1.1999-1.2945-0.83289-1.097-2.0327 1.3376-0.22369 1.4027 0.73291 2.5593 0.67825 4.0988-2.7512 8.5584-6.3878 13.159-9.4906 1.1775-0.79474 2.6586-1.3524 3.2909-2.0338 1.3607-1.4689 1.0286-4.1593 3.6551-4.0676 0.27258-1.0432-1.0043-0.65039-0.73169-1.6936 1.2437-0.023712 2.5515-0.1062 2.9245 0.67722 12.847-8.4247 23.312-19.057 34.363-29.148 6.8125 1.4576 13.326-1.404 19.008-3.0512-5.1141 0.062897-12.783 4.7582-19.008 1.6936 0.49442-0.72156 0.28696-1.7101 0.73169-2.3719 0.79788-1.1927 1.6775-1.072 2.9245-2.712 2.4334-3.2017 3.782-7.8918 5.8491-12.201 0.56393-1.1782 1.5141-2.175 2.1928-3.3892 1.1555-2.0699 1.502-4.2789 3.291-5.7622-0.080566-1.0906 0.6467-1.4339 0.36526-2.711 6.2332-10.039 10.45-21.946 19.008-29.827-3.58-4.5963 0.362-11.132 0-16.946-0.68091 3.5326-2.567 7.8434-2.9234 12.202-0.10818 1.2967 0.29352 2.8151 0 4.0675-0.35648 1.507-1.8872 2.3234-1.8287 3.7274h-1.097c-4.9518 7.5856-8.5209 15.944-13.159 24.065-3.3847 5.924-6.7132 11.596-9.5042 18.303-0.88068 2.1152-1.4303 4.5902-2.5593 6.4394-1.6631 2.7275-5.0523 4.5159-5.4827 7.7949-5.2002 1.943-8.2119 7.0589-12.43 10.846-4.2521 3.8181-8.8972 7.9083-13.89 11.524-3.3748 2.443-6.8622 5.4251-11.698 6.1003-1.002-1.5359 0.34213-3.4109 0.3653-5.0839-0.78137 1.9348-2.4676 4.8849-1.0959 6.7785-6.0091 3.8645-11.943 9.169-18.278 13.219-1.3586 0.86792-3.0183 1.1792-4.3868 2.0338-0.8652 0.53912-1.0109 1.3339-1.8276 2.0328-0.71509 0.61227-1.8982 0.80914-2.5592 1.3565-5.5367 4.5809-11.318 9.4164-16.816 13.896 5.3812-7.0991 13.157-11.98 19.74-17.964 4.5612-1.6452 8.0916-4.249 11.697-6.7786-4.6826-0.58444-16.582 4.2325-17.181-3.0512 1.726-1.474 5.5036-0.48138 8.4083-0.67825 3.6319-0.24429 8.1026 0.28653 10.601 2.0338 4.8625-2.7285 8.0375-5.8178 9.8695-11.864 1.1213-3.6965 2.4842-6.2972 4.0204-9.8297 0.44696-1.0266 1.225-1.8039 1.4623-2.712 0.28693-1.0916-0.026489-2.4348 0.36639-3.7284 0.22736-0.74527 1.1234-1.5184 1.4612-2.3719 0.7659-1.9348 0.7273-4.418 1.4623-6.1013 0.50433-1.1545 1.8044-1.8884 2.1928-3.0501 0.96124-2.8729 0.16336-6.0993 1.097-9.1515-3.7148 0.058746-5.5103 1.8946-6.9461 4.0665-3.5095 1.7276-7.7704 2.5461-10.601 4.7458-1.7117 1.3297-1.7536 3.6851-4.0215 4.4067 0.50324-4.5995 3.9906-8.0681 8.043-11.185 3.4487-2.6543 7.8422-3.0986 13.526-3.7284 1.4468-4.6634 3.6772-10.73 2.9245-16.607-0.091614-0.7226-0.68424-1.6575-0.73062-2.3729-0.046326-0.70505 0.58932-1.609 0.3653-2.3729-0.74823-2.5482-3.8096-2.9708-3.2898-5.7612-1.9512 2.2585-0.66656 7.5176-3.2909 9.1514-0.47235 1.4854 0.93256 3.1749-0.36639 3.3883 5.561 0.64322 5.7387 12.144-1.8264 10.847-4.1087-2.174-3.9023-9.2721 1.0959-10.508-0.7019-1.573 0.73938-2.2915 0-4.4057 2.5879-3.2491 1.6532-9.7647 5.4838-11.864 0.85858-0.10721 1.3718-0.53497 2.5593-0.33911-0.49002-4.0067-2.2105-8.8494-2.9245-13.557-0.56949-3.7531-0.33551-7.3012-3.2899-9.1514-1.2846-6.0395-3.3461-11.358-5.8491-16.269-3.0868-1.9956-5.0534-5.0303-8.042-7.1166-4.7311-1.0174-5.0357 2.3832-8.7747 1.3555-1.6985 2.0853 0.94247 3.38 1.4623 5.0839 0.58932 1.9297 0.15778 4.0716 0.3653 5.423 4.2323 1.2112 5.7872 6.2508 3.2898 10.169 7.3831 2.612 1.4711 15.803-5.1174 10.168-0.88068 0.21954-1.4512 2.4698-2.1929 1.6946 2.0947-2.6213 0.99213-6.4569 2.5593-9.1515-0.703-0.81741-1.7161-1.3462-2.5593-2.0348 0.83878 9.4411-11.807 8.2629-9.8706-0.67722 0.58932-2.7162 3.3671-3.3686 4.3879-5.0839-1.0086-3.9057 1.8795-7.8537 2.5582-12.202 0.41385 4.3994-3.8935 11.46 1.4622 14.235 0.78577-2.9996 1.1257-6.4126 4.7532-6.7775-1.9468-1.0906 0.38736-2.9172-0.73169-5.0849-0.048584-1.3102-1.4832-1.337-1.8276-2.3719-0.50211-1.0731-0.079437-1.1339 0-2.3729-1.225-1.004-1.8827 1.4029-3.2898 1.3555 0.24719-2.143 2.333-2.5801 3.6551-3.7284-0.73056-1.5874-2.7391-1.0772-4.0215-1.6946-1.3287-0.63913-3.0349-2.0142-4.3868-3.0501-2.4997-1.9152-3.8361-3.1202-5.8491-5.423-0.66986-0.76486-1.8971-1.4751-2.1939-2.0338-1.054-1.9884-0.50546-4.0088-0.73062-6.7775-0.16553-2.041-1.3982-4.4159-0.73169-6.7785 7.2198 2.8264 6.9527 12.126 10.966 18.303 0.14014 0.21646 0.50101 0.2742 0.73056 0.67725 1.4943 2.6285 3.9873 5.723 8.042 6.1003 1.4391 0.54321 0.12689-1.4637 1.097-1.3555 1.1753-0.29791 0.50104 1.1174 1.4623 1.0164 4.24-1.5442 8.1644 0.33191 9.8706 3.0512-4.9188-6.3992-10.416-15.198-17.181-21.014-6.9792-2.6801-10.922-8.1763-16.45-12.202-4.6042 1.3524-7.4858-2.1729-10.968-1.6956-1.3309-0.93185 1.3365-0.99475 1.8287-1.3555 2.7138 0.64633 4.2257 2.408 7.6766 2.3719-0.56393-4.2232-8.2527-4.7757-10.601-8.4732-2.0858-0.60922-4.1815-0.39273-5.8491-0.67828-3.7942-3.2604-8.5242-5.6539-11.698-9.4895-0.8851 0.19482-0.81335 1.2802-1.097 2.0338-1.2305-0.52161 0.8288-1.9864-0.73062-2.0338-1.066 1.1689-0.60806 2.2894 0.36533 3.0512-0.93695 1.9554-1.5119 4.2458-1.8276 6.7775-0.81003 0.18658-0.52087-0.6463-1.097-0.67722 1.193 2.7821 0.2792 5.6065-0.73169 8.134-0.71957-1.3565 0.6489-3.683 0.73169-5.4231-2.5902 4.7293-1.2769 8.9443-2.194 14.914-0.81003 0.18655-0.5209-0.64734-1.0959-0.67828-0.13794 1.2947-0.51535 1.3122 0.73059 1.6957-2.7866 5.7354-2.2425 12.602-3.2909 19.658 3.4763-0.39273 2.8793-4.5613 5.1174-6.1013 3.4841-10.006 6.8379-21.083 15.354-26.437 0.97116-0.61127 2.269-1.9791 3.6551-1.3565-1.2272 3.1418-2.3804 7.197-4.3868 10.507-1.2195 2.0121-2.162 5.7714-4.0215 8.134-0.96896 1.2318-2.8605 1.774-4.0204 3.0512-1.5506 1.707-2.4665 4.2531-4.0215 6.1003-0.75708 0.89987-1.8816 1.4977-2.5593 2.3729-1.5671 2.0266-2.5537 4.3685-5.4827 5.423-0.89725 5.387 1.2747 8.9556 0.73059 14.914 4.932-2.8924 7.5486-9.7091 13.891-10.169-1.3111 11.89-8.1942 18.614-13.526 26.776 2.6453 9.6369 2.9598 21.432 7.3102 29.487-1.1798 1.6482-0.12802 2.9099 0.36639 4.7468 0.79346 0.056702 0.16553-1.203 0.36526-1.6957 1.8574 1.2668 1.5782 3.5985 2.194 5.4241 1.0385 3.079 3.036 5.8518 4.0204 9.4906 7.3191-2.5987 3.5679-12.245 2.9245-19.998-0.19644-2.3605 0.16882-5.1117 0-7.4568-0.29355-4.0613-1.8927-7.4321 1.097-9.8297 3.4995 1.2194 6.636 8.9504 7.3103 13.896 0.426 3.1274-0.245 5.7148-1.4623 7.796-0.40173 7.9887-3.8317 13.167-8.7725 16.945 2.471 9.572 6.1956 17.98 8.042 28.132 1.7404-2.7801 4.3846-5.9652 5.1174-9.4896 0.59262-2.847 0.08609-5.9796 0.73169-8.8123 0.69858-3.0635 2.3264-6.3394 3.2898-9.4916 1.8-5.8828 3.8041-10.829 6.945-15.251 2.4853 0.80917 2.0439 4.9293 1.8287 7.1167-0.35977 3.6397-1.4523 7.5166-2.194 11.185-0.44031 2.1791-1.2437 4.4428-2.1928 6.7796-1.4314 3.5192-2.8926 6.5147-4.7532 9.4895-2.1939 3.5099-4.7046 7.0456-8.0419 9.4916 1.2129 5.5333 0.43372 11.443 1.8276 17.286 1.3696 5.7384 3.206 13.641 2.194 21.013-0.3013 2.1977-1.7371 4.0696-1.097 6.4404 0.55734 1.3308 2.6553 0.91641 3.2909 1.3555 0.25497 1.4792-1.0562 1.507-1.097 2.712-0.97116 0.003113-2.0869-0.12884-2.5592 0.33914-3.1982 2.0039-4.826 5.4663-8.4061 7.1177-1.0672 3.0501-3.6132 5.188-5.4838 7.7949-5.3557 7.4661-7.4261 17.799-12.063 26.437 12.769-6.125 27.139-10.766 40.211-16.607-1.4766 2.6966-5.8634 2.6966-8.0419 4.7448 3.5128 1.072 6.8401-1.9328 10.601-3.0502 3.8747-1.1504 7.8234-2.9976 12.063-2.3729 1.3894 2.6914-2.2977 3.2965-4.7532 4.0665-5.1019 1.6019-10.116 4.1284-17.911 3.7284-0.74933-0.32162-1.012-1.0947-1.4622-1.6936-7.5431 3.0604-15.113 6.0972-22.665 9.1504-0.96896 0.48962 1.3431 0.75766 0.73172 2.0338-1.7901 5.9096-5.0865 10.422-8.042 15.252 5.3779 0.54221 7.5641-5.0716 11.698-7.1177 3.2655-1.6153 6.8633-1.4802 10.6-3.0501 1.1278-0.085541 1.1212-1.2205 1.8286-1.6946 1.5163-0.092773 1.4248 0.44428 2.5581 0 4.229-2.4059 9.5627-3.7882 14.988-5.085 1.3453-2.7068 2.1068-5.9549 5.4838-6.7785-0.53305 2.7832-3.5536 3.2573-4.0216 6.1013 3.9984-1.0854 8.0077-3.6356 11.699-5.7622 6.0201-3.4707 13.506-7.4012 23.76-6.7786 1.9799 0.1206 3.5392 0.96692 5.4838 1.3555 5.1615 1.0319 11.028 1.1617 15.353 3.7274 5.3227-0.084534 11.865-0.45148 17.181 0.67828 5.4451 1.1576 11.858 2.7336 13.159 6.4404-3.7953 3.6552-7.3897 1.1071-10.966-0.33914-1.5307-0.61951-3.3031-1.1174-4.7521-1.6957-5.0589-2.0173-7.563-5.1787-12.429-3.3882 3.686 2.6316 7.9669 4.6231 12.063 7.1177 1.2272 0.74731 2.4081 1.707 3.6552 2.3729 0.86304 0.46075 2.0107 0.25153 2.9245 0.67825 0.96124 0.4484 1.8099 1.7246 2.9245 2.3719 1.1831 0.68753 2.6718 0.99988 3.6551 1.6956 1.9401 1.373 3.3009 3.5965 5.4838 4.7448 1.2029-0.014435 1.8199-0.57108 3.2909-0.33914-0.26596 1.037 0.63016 0.9968 0.3642 2.0338 3.8648 2.6162 7.4824 5.1076 11.698 7.7949 2.812 1.7936 4.8624 3.8892 9.1389 4.0675 9.7668 0.40512 20.666-7.564 30.706-2.3729-0.4238 2.2389-3.5161 3.7624-5.4838 4.4056-1.5417 0.5051-3.9862 0.62054-6.2133 1.0174-3.1243 0.55664-6.5907 1.2627-11.698 1.0184-2.2513-1.303-4.346-2.7502-7.6756-3.0512 7.2639 2.9801 11.395 8.8659 21.201 9.4896 0.7681 0.53082 0.89502 1.6565 1.8275 2.0348 5.465-1.7369 7.7252-7.2156 11.332-11.185 2.9875-3.2893 5.2266-4.3964 10.236-6.1013 1.3-0.4422 2.5648-1.8194 4.0215-1.0174-0.63458 2.7893-2.0549 5.6086-3.6562 7.7949-0.82104 1.1226-2.5294 1.9317-3.6551 3.0512-1.1511 1.1452-1.843 2.5234-2.9245 3.3892-3.6596 2.9316-8.8928 4.8685-14.256 5.7612 0.8829 1.641 2.9874 1.3885 4.3868 1.3545 4.5777-0.10617 10.042-4.0325 14.987-5.7601 3.4432-1.2029 8.5032-3.1501 12.063-4.0675 2.3771-0.61234 4.3294-0.38144 6.2144-1.3555 1.119-0.57828 1.3972-1.5844 2.9246-2.0338-1.0562 5.6942-5.0324 7.4929-11.332 10.169-4.8912 2.077-7.8941 3.0594-14.622 3.3882-3.5558 0.17319-7.3069 1.0999-10.236 1.0174-4.4486-0.12573-7.8786-2.1492-9.5053-5.424-8.1711-0.67001-11.508-5.823-17.911-8.134 0.4028 1.5514 1.0242 3.7964 2.194 5.0849 0.67319 0.74219 1.9777 0.98032 2.9245 1.6936 2.2955 1.7307 4.0171 4.5149 6.2144 6.7796 1.459 1.504 3.7423 2.3595 4.7521 4.0676 1.0252 1.7317 0.96457 4.0912 1.8265 6.0992-10.86 0.46283-13.947-9.2071-18.276-15.93 1.7602-5.089-2.8914-5.7735-3.6551-9.4906-6.2089-3.5078-11.636-7.7392-17.182-11.862-0.69415 1.8812 0.35648 7.1146 3.6551 7.4568-0.049622 1.4019 0.82993 1.9399 1.4623 2.712-0.48672 1.4555-1.6344 0.092773-2.5593 0 0.57721 1.138-0.003296 2.5193-0.73169 3.3882 2.6122 6.5724 4.0226 12.33 4.3857 20.676-0.9502 0.20309-1.3155-0.13605-1.0959-1.0174-0.84311 1.6338-1.3232 4.0346-2.194 5.7622-0.74048 1.4699-1.8076 3.4738-4.0204 3.3892-4.7036-0.18243-5.9881-8.4062-3.6551-13.22 1.3707-0.53497 2.3783-1.4091 4.3857-1.3545-0.90164-7.9908 0.8685-12.727 2.1939-18.98-2.3661-2.4378-4.5258-5.0695-4.3868-9.8297-0.76367-0.53497-2.4279-0.23502-3.2909-0.67825-1.7779-2.877-4.6616-4.6613-7.6755-6.7786-1.066-0.74835-1.9975-1.9152-2.9245-2.3729-1.0815-0.53397-2.5526-0.42883-3.6551-1.0174-1.1014-0.58756-2.1951-1.6606-3.291-2.3719-1.2294-0.7999-2.4091-1.3524-3.6551-2.0348-5.2278-2.8584-10.956-5.9951-17.547-8.134 1.0782 1.7297 2.983 3.0779 4.7532 4.4066 1.6014 1.2019 3.4256 2.5935 5.1174 3.7274 3.5348 2.3719 8.2273 3.9407 9.8706 8.1351-8.7472 0.54324-17.816-3.9232-20.472-10.508-0.95459-2.3678-0.32446-4.8674-2.5581-6.7775-2.4257 0.28036-5.7608-0.69376-8.4072-1.0184-7.2495-0.88443-14.101 0.57416-19.374 2.712 4.8415-0.0495 11.065-0.048462 14.622 2.0338 1.0087 3.0192 4.8448 3.4171 5.8491 6.4394 0.69192 0.37622 1.7271 0.43292 2.5592 0.67825 0.68533 0.6463-0.21744 0.61334 0 1.6946 4.8636 4.5757 13.179 8.0299 21.934 6.1003 6.0268 2.8089 13.271-0.53604 19.374 0.33911-0.16995 1.5596-2.3749 1.07-3.6551 1.3565-3.1795 0.7092-9.8044 1.7482-14.988 1.0164-0.75708-0.10617-1.4987-0.62051-2.1929-0.67825-2.4268-0.19998-5.0302 0.35355-7.3113 0-2.5471-0.39377-4.9938-1.8915-7.3102-1.6946-4.2975-3.0192-8.8641-5.79-11.697-10.167-3.8328-1.2627-6.4373-4.8004-11.333-5.0849-2.748-0.15872-5.7387 1.0205-8.7725 0.67825-1.1576 0.16907-1.4953 1.1009-1.8286 2.0327-4.5192-0.43909-6.9317 3.6428-11.333 4.4067 0.93805 2.7687 4.9077 1.4493 7.6767 1.6946 3.132 0.27728 6.3534 1.6369 9.1388 1.6946 1.7934 0.03714 3.6265-1.2679 5.1174-0.33914-3.5658 2.977-11.541 0.40823-15.353-0.67825-2.2436 0.7525-6.1548 0.34634-7.3113-1.0174-1.1455 1.4565-2.2657 0.76178-3.6551 0-6.3711 1.0154-11.311 4.4901-16.814 6.4394-3.5514 1.2586-7.4912 1.4544-10.602 2.712-3.068 1.2411-5.3977 3.8995-7.3102 6.1013-3.622 0.70816-5.2322 3.2831-9.1389 3.7284-2.4136 3.1841-5.8623 5.4096-7.6766 9.1504 0.048553 1.6503 2.184 1.3648 2.9245 2.3729-0.85968 1.5761-3.9045 1.1246-5.1174 2.3729-2.6906 5.4097-6.8876 8.9082-11.697 12.54-1.139 0.85971-2.13 2.0235-3.291 2.712-1.2294 0.72879-2.7866 0.87308-4.0204 1.6946-1.5881 1.0586-2.1951 2.7358-3.6552 4.0665-2.6332 2.3997-6.3677 3.9119-9.8706 5.4241-3.43 1.4792-7.02 3.0625-10.601 4.4067-3.0768 3.1346-8.7063 3.9026-11.697 7.1177-0.46683 0.47003-1.726 0.20718-2.1929 0.67825-1.3861 0.61642-2.2668 3.1924-4.3879 2.0327 1.8309-2.4822 5.23-3.5119 7.6767-5.423 0.11035-1.5225-0.46796-1.8658 0.73059-3.3893-3.0934-5.7931-7.0465 1.773-8.0419 5.0839-1.6422-0.5144 0.006592-2.0431 0.36639-3.0491 0.8873-2.4842 2.0505-5.0097 4.0204-6.4405 4.7654-1.1472 8.4768-3.8387 12.795-5.7622 7.031-3.1326 12.743-7.8093 19.374-11.523 0.70187-0.47833 0.66217-1.6462 1.097-2.3729 6.7606-1.3596 11.382-5.9353 15.353-10.846 1.9445-2.4038 2.9201-3.1986 3.6551-6.4394-4.4442-11.058 8.213-19.545 16.085-23.387-0.66547-1.1566 0.048584-1.6287 0-3.0512 6.1614-10.329 7.8212-24.834 17.546-31.86 0.4646-1.1504 1.2978-1.9606 1.8275-3.0512 2.2293-1.2101 3.8129-3.0172 5.1174-5.0839-1.0628-7.4846 1.9004-13.473 1.0959-20.337-0.57721-4.9354-2.503-9.2215-2.5582-14.574-0.041931-3.9706-1.5881-8.0093-1.097-12.201-3.4256-3.0563-5.9109-5.524-11.333-6.1003-2.2348-0.2381-4.7344 0.31131-7.3102 0-6.8368-0.82666-12.965-4.5726-18.277-7.4578-1.7746-0.96381-4.3769-1.3967-4.7532-3.3882 5.0788-0.84424 10.262 1.0875 14.257 2.3719-0.3024-1.5606-2.5979-5.1231-0.73169-8.4732 0.71954-1.2937 1.8066-1.539 2.9245-2.3719-0.7438-2.8368 0.19095-4.9438 1.0981-7.1187 1.6653 1.6905-1.1234 5.1292 0.73059 7.4578 1.7216-0.66486 1.0385-3.5562 2.9245-4.0675-0.75375-1.674-1.9578-2.9306-2.1929-5.0839-1.3971-0.27832-0.43039 1.6338-1.8286 1.3545-0.083862-1.3205 0.78577-1.7565 1.097-2.712-4.868-3.281-7.9228-8.2444-12.794-11.524-0.13794-2.1987-3.6948-2.8079-2.9245-4.7448 10.287 2.4389 16.289 8.8474 22.298 15.253-0.28915-4.4582-4.3372-5.7086-6.5796-8.134-1.0462-1.1318-3.4046-4.8612-4.0215-6.4404-0.25714-0.65765 0.15118-1.2473 0-2.0327-0.26709-1.3823-1.2857-2.8378-1.4623-4.0675-0.29135-2.0348 0.87515-4.3799 0.3653-6.7796-0.55841-2.6223-5.6361-6.0724-7.6755-8.134-0.97339-0.98132-2.5956-2.2471-4.0215-3.7274-1.332-1.3843-2.4213-3.514-3.6551-4.0675-3.1132-1.3946-8.1898-0.55664-12.429-1.0164-3.2412-0.35254-6.466-1.709-9.5053-3.3893-4.1407-2.2904-8.0066-4.0325-8.7725-9.4895 6.7033 2.3698 11.65 6.3714 18.643 8.4732-2.887-3.7634-7.5343-8.8308-12.429-11.862-4.559 0.84732-6.7297-1.8296-10.236-3.0512-1.7702-0.61746-3.8206-0.45871-5.1174-1.0164-2.9046-1.2493-8.2383-6.5487-9.8684-9.4916-1.5362-2.7677-2.2403-5.9591-2.9257-8.4732 2.8749 0.027802 3.3163 2.9141 4.7521 4.4066 2.3904 2.4822 5.9451 4.014 8.0419 6.7785 3.3825 1.2019 6.0444 2.6255 8.7736 4.4067 2.9047 1.8956 4.7962 4.6201 8.4072 6.1013 0.07724-2.845-3.2049-4.0294-5.1174-6.4405-1.9412-2.4471-2.4898-5.4952-3.2898-8.8123-0.884-3.6635-2.6564-7.963-0.73059-11.864 4.4254 3.4924 5.177 9.6926 7.3102 14.914 0.53748 1.3153 1.6775 2.4616 2.1929 3.7284 1.438 3.5264 1.3276 7.3032 3.2898 10.506 3.8792 1.9173 5.6206 8.7526 9.5053 11.185 2.7932 1.7493 6.3876 1.3061 9.5042 3.3893-0.63788-5.522-5.1527-14.217-2.1939-21.014 3.8493 2.7883 5.4705 7.8898 7.3102 12.541 0.93253 2.3564 2.0141 4.7139 2.9245 7.1166 1.8585 4.9035 1.5252 10.504 5.4838 13.558 0.79681-6.192 0.33661-11.37 2.5582-16.946 1.0319-2.5873 3.6529-4.8097 4.0215-7.1177 0.3432-2.143-0.80783-6.1683-1.0959-9.1504-0.19424-2.0049 0.36862-3.4831-0.73169-5.4241 1.1555-1.17 0.80563-3.6119 1.097-5.7611 0.703-5.1705 1.278-9.5833-2.9245-12.202-1.6554-1.0308-2.7325-2.1688-4.3868-0.67828-1.1886 0.68756 0.4017 3.4284-0.36639 3.7274-0.87405 0.77206-1.4876-0.61127-1.4623-1.6936-1.1985 1.1483-2.482 2.2183-3.6551 3.3892-0.38294 1.8946 1.2085 3.7563-0.36417 4.7448-1.3729-0.53497-0.96786-2.7182-1.0981-4.4067 2.77-1.9513 3.7401-5.5704 6.946-7.1177-5.2112-2.2822-10.726-2.8244-14.623-6.1002-1.5009-1.2628-2.8186-3.6903-4.3868-5.4241-3.3384-3.6913-7.521-9.9153-7.6755-16.946 2.4676-0.36591 3.686 2.042 5.1174 3.7284 3.5006 4.1232 7.5696 9.6782 11.697 13.557 1.1511 1.0823 2.6895 1.6936 3.6551 2.712 1.0495 1.104 2.2326 3.6872 4.0216 5.0839 0.1015 0.080383 4.41 2.6862 4.7521 2.712 1.2184 0.090698 2.4952-1.9266 3.6562-1.0174-0.33658-1.6091-1.2029-2.7264-1.0981-4.7448-2.5614-4.7128-7.2848-7.1888-9.5042-12.542-0.80454-1.9358-1.097-4.216-1.8287-6.4394-0.66437-2.0234-1.6675-3.8408-1.8275-6.1013-0.11258-1.5885 0.49661-3.1975 0.3653-5.0839-0.181-2.5955-2.2094-5.6148-0.3653-7.7949 2.0472 0.47519 2.9886 1.973 5.4827 2.0338 4.0624 3.5758 3.9708 11.005 7.3125 15.252-0.057404 3.145 2.1034 5.9023 1.4622 8.4732-1.278-2.0121-1.4821-4.4953-2.194-6.7775-0.66653-2.1348-1.9655-4.1881-2.1939-6.4404-1.6764-2.5141-2.5846-5.7385-4.0204-8.4732-1.4159-0.83289-3.1166-1.404-4.7532-2.0338-0.033112 2.7337 2.8693 4.5901 3.6551 7.4558 0.2428 0.88339-0.16443 2.1121 0 3.0512 0.2196 1.2473 1.3309 2.1451 1.8287 3.3892 0.84756 2.1255 0.84537 4.6664 1.4622 6.7796 1.5373 5.2715 4.4883 9.972 6.2144 14.234 1.7282-2.9811-0.92703-6.225 0-9.1504 3.8229 4.517-0.5463 11.493 2.5581 16.607 3.0316-3.0532 1.7602-7.2434 2.5593-11.524 0.18982-1.0195 1.1257-2.0173 1.4622-3.0501 1.054-3.2357 0.95572-7.7485 1.8276-11.523 0.61801-2.6708 2.7755-5.1499 1.8286-7.796-0.49438-0.89679-2.0494-0.81122-2.9245-1.3565-0.95462-1.2607-2.397-2.0709-2.9245-3.7284-6.1239-3.247-7.5552-10.845-12.43-15.252-1.1113-2.2832-2.4367-4.3747-3.6551-6.4404-1.1941-2.0255-3.2104-3.6089-3.6551-6.1013-4.4343-0.83905-8.3189 0.13608-11.333 2.0338-2.2425 1.4122-4.7245 3.1254-6.5796 4.4066-2.93 2.0225-4.7256 4.4984-7.6767 6.7786-1.46 1.1277-3.9145 3.9211-6.945 2.711-0.35754-4.3479 3.5139-7.5414 5.4827-10.845 5.5445-4.5984 16.442-7.3888 25.956-6.1013-1.6146-4.2294-4.7377-7.8753-7.3124-12.879-2.2248-4.3294-3.0835-8.1114-7.3102-9.8297-0.43039-2.6512-2.0968-4.1562-3.6551-5.7611-1.9236-0.42778-2.1686 0.70198-3.6551 0.67724 0.71292-1.8792-1.6179-2.0585-0.73169-3.0512 2.0163-0.39995 1.1544 1.8678 3.291 1.3565 0.60034-1.2617-1.4976-1.1019-2.194-1.3565-2.0891-0.76382-4.1462-0.71538-7.6755-1.0164-4.5071-0.38346-9.4402-1.4009-13.526-0.67724-2.9422 0.51952-6.1647 2.3812-9.5042 2.712-2.1377 0.21028-4.5479 0.35047-6.5808-0.67827 0.18982-1.6328 2.1896-1.5864 3.2909-2.3729 3.5249-3.2429 7.6833-6.258 13.526-5.7622 2.4688 0.21028 5.0214 1.9915 8.0419 2.712 1.2327 0.29481 2.7932 0.049469 4.0216 0.33913 3.4013 0.80402 7.8333 3.5501 11.333 4.7448-0.90717-5.4849-3.8615-9.0721-5.1185-14.234-2.6012-1.3309-4.6605-4.5185-8.0419-5.7617-3.8273-1.4087-10.188-1.6551-15.353-2.7116-1.651-0.33727-3.3538-1.1873-4.7532-1.3559-4.4111-0.51479-8.9899 1.9984-12.795-0.66239 0.56616-3.7873 10.239-5.9482 16.45-4.745 7.0531 1.3658 13.692 5.2548 18.278 7.4566-2.471-4.1992-7.7793-5.3564-12.429-7.4566-3.4973-1.5794-6.3435-3.2305-9.1378-6.1008-1.0683-1.0965-1.6918-3.7393-2.5592-5.4234-0.63238-1.2291-1.8419-2.2038-1.8287-3.7283 5.1627 0.15462 7.691 4.4107 11.333 7.4566 2.056 1.7191 4.0204 3.0499 5.8491 4.745 3.8162 3.5368 6.9725 7.5555 10.968 10.507 0.069519 1.5164 0.93475 2.2966 1.8276 3.0509 0.06842 0.95679-1.438 0.8501 0 1.3559 1.4965-0.7393-0.14902-5.0582-0.36533-6.7782-0.20969-1.6662 0.16003-3.461-0.36639-5.0842-1.0992-3.3952-4.8658-5.2378-6.945-8.4733-1.2923-2.0114-1.6543-5.3187-2.5592-8.1352-0.21188-0.66044-0.92703-1.4317-1.097-2.0333-0.47565-1.701-0.16776-3.5208-0.73059-5.0842-0.73612-2.0442-3.0713-3.7961-4.3868-6.1008-1.1455-2.0093-2.9996-5.1192-0.73169-7.4567 1.7547 0.52076 2.7557 2.1411 4.0215 3.3892 2.8086 2.7685 5.1108 4.7859 6.946 8.8125 0.84976 4.2671 1.5406 8.5192 2.5581 13.558 0.40726 2.0123 0.86304 4.1963 1.4623 6.1008 0.55292 1.7579 1.9523 3.2265 2.5592 5.0842 1.1003 3.3672 0.59818 6.9209 1.4623 10.506 1.6378-4.4696 2.0317-10.092 3.2898-14.913-3.601-6.2266-3.3494-19.112 0-25.42 3.1122 2.0861 1.7349 8.3346 3.291 11.864 2.1752-1.9366 2.3209-5.7576 5.1174-7.1175 1.9258 0.6994 2.4445 2.7037 3.6551 4.0675 0.087189 10.85-3.4123 18.847-6.5796 27.115-0.83655 2.1859-2.1057 3.9419-2.5582 6.44-1.1411 6.2832 0.055206 12.402 1.4623 18.642 0.89944-5.5859 1.2901-11.162 3.2898-15.93 0.83984-2.0004 2.6144-3.6905 3.2909-5.7617 0.33881-1.0406 0.035339-2.3804 0.3653-3.3891 0.79572-2.4284 2.8727-5.6369 4.7532-7.4567 1.8463-1.7868 4.2434-3.4619 6.2144-4.4068 3.5867 6.5468-2.9808 11.719-5.8502 15.591-1.6852 4.7629-3.8052 9.1248-7.6755 11.863-1.2172 3.2769-3.6055 5.4704-2.9245 10.507 1.3122 1.0421 2.3242 2.3646 2.194 4.7458 0.64999 1.204 2.387 1.4019 3.2898 2.3719 3.3484 6.6105 6.8103 13.119 10.601 19.319 4.3945-3.0398 4.8205-8.3649 3.6551-14.235-0.46902-2.3626-2.0991-4.7345-2.5581-7.4568-0.3002-1.775-0.38187-4.3283-0.36642-6.1013 0.052979-5.7797 0.79239-12.436 5.1174-15.591 3.1574 0.91288 1.5925 4.3498 1.4623 6.4402-0.17105 2.7378-0.703 6.0023-0.73169 8.4732-0.015442 1.4854 0.50214 2.7223 0.36639 4.0675-0.13797 1.3565-0.91046 2.7234-1.097 4.0675-0.7052 5.0901 0.28915 10.545-1.4623 14.574 0.93695 0.95554 1.4822-1.3184 2.9246-1.0174 2.3054 0.75042 3.2832 0.41644 5.8491 0 4.4287 1.4802 4.485 10.395 0 11.185-5.2344 0.92258-6.4152-5.0354-4.7521-9.8287-1.9887-1.138-1.7205 2.3688-4.3868 1.6936-0.62244 1.7967-1.4888 3.3656-2.5593 4.7448 0.21521 3.0708 2.6553 5.0519 4.3868 7.7959 3.6529 5.792 7.8709 11.322 11.332 17.286 2.1719 2.1678 4.5292 4.1603 6.5796 6.4394-1.2636-3.4882-1.4402-7.2393-2.1939-10.846-0.78134-3.7418-2.6155-6.96-2.9245-11.185-0.20859-2.8667 1.0782-5.2798 1.4622-8.134 0.45691-3.3852-0.34653-6.0828 2.194-8.134 1.6962-0.17317 1.1599 2.9986 1.097 3.3893 0.36639 1.6235 2.6586 2.143 3.6552 4.0675 1.5373 2.9677 1.0286 8.9102 1.4622 14.913 0.35315 4.8767 1.7779 8.967-0.73169 12.202 0.51538 2.5904-0.87292 4.9592-0.3653 6.4404 1.3894-2.2141 2.5581-4.6334 3.2898-7.4568 1.47-2.2914 3.5117-4.6602 3.6551-8.134 0.089386-2.1585-1.023-4.4366-0.73166-6.7785 0.29242-2.3471 1.2404-4.2634 2.1939-6.1003-0.023163-3.4026 1.9379-6.3806 2.5593-9.4906 0.61136-3.0687 0.47122-5.8982 1.8275-8.4732 1.8408-3.4934 5.2719-5.6725 6.9461-9.1514 3.4035 2.7945 1.2515 9.4968 0.3642 13.219-1.7382-2.4605 2.5482-7.5352 0-10.845-1.4281 1.538-2.1134 3.7109-2.9246 5.7612-0.77139 1.9513-2.0814 4.1634-2.5581 6.1013-0.60254 2.4451-0.47784 4.7644-1.097 7.1166-1.566 5.9488-5.1351 11.844-5.8491 18.303 3.3825-1.7616 5.1185-5.6075 6.5796-9.4895 1.7956-4.7695 4.453-8.3392 5.1174-14.236 0.78024-0.15875 0.69641 0.48344 0.73062 1.0164 2.3816-6.8301 6.0344-12.482 11.333-16.607-5.3888 0.45768-7.2815-5.2107-9.1388-9.1504 6.2563 0.18657 8.9756 3.6532 11.698 7.1177 0.056305 0.95556-1.033 0.84938-1.4622 1.3555 1.5804 0.3278 2.6652-2.7213 5.1174-2.712 0.47897 0.77619-0.26154 2.7636-0.73166 3.7284 6.5101 1.7596 7.6866 8.4649 13.159 11.185-1.4523-11.646-4.1606-22.127-8.4072-31.183-3.4907-2.2587-9.1632-1.4668-15.354-2.0327-4.709-0.43242-10.793-2.4377-12.794-4.7454-0.67981-0.78423-1.5826-2.2967-1.097-3.7284 2.8528 0.042984 6.211 0.16761 9.8706 1.0167 3.0736 0.71331 4.8989 2.6778 8.0419 4.0675 3.4631 1.5315 7.5597 1.7469 10.601 4.0678-0.57721-5.1473-1.9644-9.0752-4.3879-12.202-1.4523-1.8747-4.2886-3.479-6.5796-5.0842-5.1803-3.6316-11.061-6.6097-14.257-12.202-0.32117-0.56364-0.30017-0.76125-0.73059-1.3558-0.73498-1.0137-2.0306-3.7543-1.4622-5.7617 3.9365 0.01897 5.7961 3.5448 8.4072 6.44 4.1661 4.6163 8.8553 10.046 12.795 14.913-0.33548-3.5338-4.7344-8.0354-2.9245-13.558 2.0858 0.74826 3.1574 3.6445 3.6552 5.7616 0.15228 0.64848-0.08609 1.6182 0 2.3725 0.15228 1.3469 0.93472 2.5371 1.0959 3.7284 0.13245 0.97473-0.28363 2.0542 0 3.0509 0.80344 2.8094 4.0458 5.5571 4.7532 8.8125 3.6209-4.7889-0.13245-9.3682-0.73056-14.236-0.74826-6.0839-2.6211-14.526 0-17.625 2.6574 0.12174 2.9058 2.7996 3.6551 4.745 1.3541 3.5109 2.0626 5.7237 1.8287 10.168-0.20859 3.9508-0.2439 8.16-1.4623 12.202-0.93695 3.1028-3.2225 5.9593-2.1928 9.4904 1.1786 4.051 4.4265 8.4783 5.8491 13.219 0.55069 1.8358 0.47122 3.7923 1.0959 5.7611 0.948-10.306-0.89835-23.203 4.0215-29.826 2.7171 0.75928 2.3341 5.9133 2.5581 9.49 0.5805 9.2068-4.4265 17.738-6.5796 24.403 1.6708 2.9718 1.949 7.2331 2.5592 11.185 2.4213-1.3091 1.8563-4.6396 2.194-6.7775 0.74271-4.7087 1.0528-9.1762 3.6551-12.203 0.85089-0.98956 2.4555-1.4524 3.2909-2.3719 0.80896-0.89164 1.0639-2.2245 1.8276-3.0512 0.95902-1.037 2.4125-1.539 3.6551-2.3719 1.1257-0.75454 1.9832-2.3389 3.6552-2.0338-0.075043 8.968-9.3188 9.4359-9.8684 17.964-3.3616 2.7801-7.8731 10.383-7.3113 16.607 0.1622 1.7998 1.5152 3.8315 1.8275 6.1003 0.32779 2.3791-0.16992 4.9757 0.36533 7.1177 0.55512 2.2172 2.5692 4.5221 2.1939 8.1351 2.3286-7.1063 5.4418-13.484 7.3113-21.014 5.2697 1.1844 4.0855 7.4764 3.6551 13.896-0.35535 5.3035-2.4379 10.796-3.2898 14.236 2.9642-2.1152 2.9411-6.3703 5.1174-9.4916 1.3497-1.9328 5.4518-6.4157 7.6766-7.7949 0.84094-0.52057 2.035-0.5628 2.9245-1.0164 1.6057-0.81741 2.6266-2.9161 4.7532-2.711 1.6245 5.1324-2.983 6.7785-5.8491 9.4896-1.3961 1.3205-2.0284 3.0852-2.9246 4.0675-1.6995 1.8616-4.1661 3.1171-6.2144 4.7448-2.1101 1.6771-3.6606 3.9727-6.2144 4.7448-1.0319 4.8056-3.6827 8.1083-6.2144 11.524-0.33108 3.1955-1.4236 5.6838-1.8275 8.8123 1.2504-0.095886 2.7645-1.6606 4.7532-3.0501 1.6642-1.1638 3.9608-2.2523 4.3868-3.7284 0.4249-1.474-0.57938-2.7162-0.3653-4.0675 2.6222 0.41028 0.56616 3.0738 1.097 5.423 3.4984-0.36591 6.4671-0.70709 8.0419 1.6946 2.376 3.6253-0.24719 10.201-5.1174 9.1525 0.87845 3.8253 0.26926 7.7413-2.5592 8.4731-7.6579 1.9812-8.6423-10.58-2.5582-12.541-1.6068-5.3684-7.4515 0.026794-8.043 3.0502-1.0308 5.2694 3.5823 9.9431 4.3868 16.608 0.22513 1.8678-0.24057 3.6191 0 5.423 1.012 7.596 5.8943 11.59 8.4072 14.574 0.36969 0.5618 1.5527 0.36801 2.1939 0.67828 0.3024 1.3813 0.056305 1.1668 0 2.712 2.6784 4.7468 4.2036 10.564 6.2144 15.93 1.2184 0.11237 1.6212 0.98132 3.2898 0.67725 3.0581-2.5007 1.0815-8.0176 1.4623-11.185 0.31671-2.6502 2.2094-3.7624 1.8276-7.4568-0.077271-0.75247-0.45578-1.7462-0.73062-2.3729-2.4996-5.7014-8.3244-11.045-9.1388-18.302-0.31787-2.8347-0.032043-5.8962 0-9.8297 2.0107 0.35562 2.6707 2.6419 3.6562 4.0675 4.431 6.4168 6.637 15.961 7.3102 26.438 4.4928-2.1472 3.2821-11.32 5.1174-15.93 1.4899-3.7418 4.708-7.1434 7.3103-10.169 1.3828-1.606 3.0106-3.0141 4.0215-4.7448 0.96674-1.6565 0.83209-4.5922 3.6551-5.0839 2.1498 6.0374-0.43372 12.404-2.9245 16.269 5.2366-3.0573 10.08-11.207 19.007-10.846-1.4071 4.4386-5.3171 7.4176-8.7725 10.508-4.101 3.6666-7.649 7.3867-14.256 8.8123-3.4576 4.251-4.3647 10.868-10.966 12.202-3.4653 2.6162-2.5825 7.9423-3.6551 12.202 2.4312-0.569 2.1421-2.5533 3.6551-3.7284 6.8853-5.3478 19.301-1.338 28.514 0-1.246 3.0512-8.1622 4.0449-12.43 4.4067-5.8248 0.49374-14.67-2.6327-19.739 1.0174 0.1236 2.9388-0.53857 5.1499-3.2909 5.4231-0.18982 1.5709 0.95129 2.712 1.097 4.4056 0.10596 1.237-0.42267 2.3812-0.36639 3.7284 0.16885 3.9655 2.4401 8.5896 2.9245 13.218 0.1192 1.1359-0.088287 2.2162 0 3.3892-0.78574 0.37833-1.7547-1.104-1.4622 1.3566 0.51315 1.0875 0.022064-1.5153 1.4622-0.67828 0.39951 2.8574 0.117 4.4696 0 7.4558 1.6874 0.20926 2.1034-0.76071 3.6551-0.67828 1.1963-2.1801 2.983-2.1842 6.2144-3.7274 2.0339-0.97101 3.0382-2.3894 5.848-2.3719 3.0934 0.016479 5.3635 2.2172 8.4083 2.711-1.7823 2.4317-5.4651 1.9966-8.4083 2.712-0.79678 0.19382-1.4711 0.78445-2.1929 1.0164-3.7809 1.2184-8.6897 0.57416-12.794 1.6957-1.2548 2.6337-0.35315 5.5942-0.36526 8.4732-0.003357 0.8638-0.5419 1.7524-0.36639 2.712 0.41162 2.242 2.6111 4.2664 1.8286 6.7775 0.48556 0.90607 2.4445 0.44531 3.2898 1.0174 2.9731 2.0812 2.6255 8.8226-1.0959 9.4916-4.8967 0.87824-7.0995-6.2972-2.9245-9.1514-0.74823-1.9059 0.25382-5.4334-1.8275-6.1013-2.7347 4.0108-2.6476 7.897-3.2898 13.557-0.50326 4.4304-4.186 10.016-5.1185 14.914-0.32117 1.6905 0.080566 3.1295-0.3642 4.4056-0.76703 2.2028-3.2821 4.2562-4.3868 6.4404-1.1654 2.307-1.2261 4.4572-1.8276 6.7796 7.4824-2.545 13.323-7.6928 18.643-12.542 2.7193-2.477 5.5577-4.8644 8.043-7.4558 3.7655-3.9294 7.3544-6.6621 10.965-10.846 3.7677-4.3664 6.4704-10.706 9.1389-16.608 4.2544-9.406 10.431-18.896 14.622-28.471-0.5253-1.2617-1.875-0.50305-2.9245-1.3555-3.8736-3.1491-1.7183-11.693 3.2909-11.524-1.2084-2.7893 0.74826-6.9249-0.73056-10.506 2.9013 1.8245 1.6686 7.1218 1.8264 9.8287 1.31 1.7235 3.4851 2.643 4.0215 5.0839 1.0164-1.138-0.35977-5.1963 2.5581-5.423-0.34103-1.1524-2.5096-0.60922-2.9245-1.6946-0.84537-1.3627-0.79898-3.5522-0.73169-5.7622 0.88178-0.65045 1.4512-1.5916 2.1928-2.3719h2.9246c1.9809-2.3234 0.64447-8.4319-2.9246-7.4568-1.5307 2.4471 1.907 4.9994 0.73172 7.1166-2.2359-0.29892-0.23288-4.5283-2.1929-5.0839 0.003296-0.8999-0.13904-1.9348 0.36639-2.3719-3.377-0.080383-3.7257 2.6471-5.8491 3.7274-0.47342-1.8719 1.736-3.9799 3.654-4.7448-2.3926-3.4645-8.4712-1.571-12.429-3.7284-1.4358-2.4863-4.3968-4.2603-4.7521-7.7949-0.21411-2.1327 0.55069-4.5293 0.73169-7.1166 4.8359 0.82465 6.0554 5.0045 8.0419 8.4732 2.503 3.6676 7.1789 5.3189 9.5042 9.1504 1.1268 0.25357 0.44586-1.1679 1.8275-0.67725-0.091614 2.2317 3.5624 0.9906 4.3868 2.3719 0.059601-2.5533 0.71182-5.7117 0.3653-8.4732-0.16553-1.3184-1.1654-2.3152-1.4622-3.7284-1.5208-7.2404 1.9798-15.958-1.8264-22.369-3.7225-2.5378-4.7389-7.5826-8.4072-10.169-0.4602-2.8234-3.3373-4.7448-5.1185-8.134-1.2504-2.3812-2.1134-5.4076-3.2898-8.134-1.0926-2.5317-2.5284-6.2755-4.3868-6.7796-4.5159-1.2225-5.3436 3.2377-9.8706 3.3892-1.0683 0.86279-2.0792 2.0245-2.9245 3.0512-0.91821 1.1164-1.3497 2.377-2.1929 3.3893-0.76148 0.91434-2.2933 1.638-3.2899 2.712-1.3861 1.4916-1.854 3.1862-3.6551 4.0675-1.0992 0.53705-2.4974 0.77622-3.6562 1.3555-2.525 1.2658-4.4674 4.0366-7.6755 4.0675 0.34872-9.104 7.467-13.334 14.622-17.286 6.0985-3.3686 10.578-8.1835 19.375-5.7622-1.939-7.0146-5.7961-12.25-6.9461-19.998-2.216-2.0121-3.7467-4.6582-8.0419-4.7448-0.98773 0.10205-0.65555 1.4256-1.4623 1.6946 2.5526 3.6954 2.1024 11.576-3.2898 11.185-3.8703-0.28036-5.6858-7.3661-2.1928-10.168 1.9401-1.5565 3.26-0.042267 5.1174-2.0348-4.5634-2.3008-10.227-1.5586-15.353-3.0512-2.6112-0.7597-5.134-2.2719-7.6756-3.3882-5.9671-2.6182-15.659-3.3759-17.181-10.169 2.535-0.37109 4.7576 1.0277 6.945 1.3555 4.3647 0.65559 7.7969 0.59169 11.332 2.0348 2.9433 1.1999 5.4407 3.2975 8.7725 4.4056 2.3738 0.78958 4.8768 0.81948 6.946 2.0338 2.4158 1.4184 5.3304 6.4662 9.8695 4.0675-11.955-9.704-24.3-19.045-25.223-38.977 2.493 0.87206 3.8184 3.2089 5.1174 5.0839 1.4954 2.1605 2.1101 4.6293 3.2888 6.7796 1.7161 3.1274 4.8194 5.457 6.5807 8.4732 0.98663 1.6874 1.6135 3.2089 2.194 5.0839 0.54297 1.7606 0.59485 3.9737 1.4612 5.7611 1.9997 4.1253 6.8578 6.1632 10.601 8.4742-0.16885-6.1889-3.6805-11.062-4.0204-16.947-0.1987-3.4202 0.75595-7.2816-0.36639-10.845-1.6212-5.153-9.3884-7.0228-14.988-9.8297-1.864-0.93596-5.1163-3.7366-6.945-4.4067-0.99432-0.36388-2.29-0.081436-3.2909-0.33913-0.83874-0.21544-1.9468-0.97514-2.9245-1.3555-3.5348-1.3792-5.5224-2.5136-8.0419-5.0846-0.45248-2.97-2.3893-4.5634-3.291-7.1175 3.4477 0.19255 5.3812 1.7888 6.946 3.7284 3.5724 1.3199 6.7496 3.005 10.601 4.0675-2.2425-2.7806-7.7131-5.5013-11.333-8.1342-1.896-2.1729-2.3385-5.9601-2.9245-10.168-0.23288-1.6722-1.5528-3.9269 0-5.0842 2.1939 0.76021 3.2754 3.8311 4.3868 5.7616 3.4697 6.0289 7.5012 12.302 12.428 17.286 0.32886 0.99267 0.32886 1.0416 0 2.0343 8.4094 3.1616 10.704 11.994 19.01 15.253 0.061798-3.3903 1.1599-8.9071-1.4612-11.185-1.1786-0.1505-1.981-0.64941-3.2909-0.67827-1.5174-1.849-5.1825-3.2706-7.3102-6.1011-1.4788-1.9664-2.4522-5.0692-4.0216-7.7958-2.4202-4.2063-4.346-6.4131-3.6551-12.202 0.42712-3.5856 2.6994-6.8341 3.291-10.846 2.8098 2.2947 3.1783 5.2408 2.5581 9.49-0.15894 1.0935-0.76148 2.551-0.73169 3.3891 0.066223 1.762 1.6333 3.895 2.5593 6.1009 1.7448 4.1533 3.5911 7.4077 5.8479 11.185 2.0968 3.5088 2.9091 6.4806 6.5797 8.135 0.31342-3.2185 0.86963-6.2823 0.36639-8.8124-0.47345-2.3835-2.5581-4.9006-3.6552-7.4567-1.7117-3.9837-3.1706-7.1364-3.2909-12.88 3.9079-1.4267 6.019 1.6132 7.6777 3.3892 1.683-3.2316-0.93366-5.2399-2.1928-7.1175-2.5096-3.7423-4.709-8.4395-6.5796-12.88-1.8838-4.4666-3.7809-9.455-4.7532-14.574-2.4544-2.8085-6.061-4.5485-6.2144-9.49 3.9454 0.78217 8.1071 1.0914 10.601 3.7283 1.64 1.734 2.3242 5.5911 3.6551 9.1507 1.5042 4.0276 3.9619 8.0533 4.3857 11.524 0.50543 4.1155-0.10486 7.3759 0 10.846 1.4325 1.8348 1.9688 4.5026 2.5592 7.1175 1.3442-5.563 1.6962-10.95 1.4623-17.286-0.49442-1.1564 0.79901-0.26739 1.097-1.0167 0.56287-1.4257-0.42154-4.268 0-6.1008 2.5802 1.295-0.11365 5.5301 1.097 7.7958 1.3762-1.2091 2.2812-2.8553 3.291-4.4067 0.30789-9.6765-3.952-17.589-2.9246-26.776 0.1236-1.1134 0.69086-2.2278 0.73172-3.3891 0.15006-4.3729-1.5384-8.8844 1.8264-12.202 1.2073 0.22843 2.6751 1.8707 3.2909 3.051 2.9521 5.6718 1.4689 15.532 1.4622 23.387 1.3177-1.1483 0.24719-2.0842 0.3642-3.3891 0.79459-8.8185 5.6559-15.779 9.1389-22.709 1.4689 0.79619 0.8674 3.1986 0.73169 4.745-0.48007 5.4973-3.3969 11.535-5.8491 15.252v2.0332c-1.9622 1.2321-2.5339 3.7513-3.2909 6.1008-1.438 0.54282-0.12692-1.4635-1.0959-1.3558-0.97342 3.1337-1.6378 6.9987-2.194 10.846-0.2803 1.9405 0.33328 4.1064-0.36639 5.7616-1.0572 2.5111-4.2135 2.6588-4.751 5.0842 1.1775-0.38315 3.718-2.4224 6.2132-2.7117-1.3442 2.0313-4.6329 2.2567-6.2132 4.0675-1.2372 3.3133-1.6014 5.621-1.8276 9.491 1.7768-1.6632 4.3515-3.7234 6.2144-6.1009 0.60477-0.77114 0.74051-1.8287 1.4612-2.7116 2.3662-2.8983 7.585-5.4623 11.332-7.7949 6.8081-4.2402 12.105-8.6698 22.664-5.0842-6.6768 6.9549-18.434 8.1212-27.416 12.88-3.3108 1.7539-5.6162 4.1494-9.1389 5.0842-2.983 3.9678-6.5675 7.4028-6.2144 12.88 0.17877 2.7796 2.9698 6.5428 3.6562 10.508 0.13242 0.76929-0.15784 1.6892 0 2.3726 0.89722 3.9298 2.9852 7.7941 2.9245 11.185-0.047455 2.5811-1.928 4.1428-2.5593 6.7775 2.7171 1.0463 1.8982-4.1098 4.7521-4.0675 1.7448-3.4511-0.083862-10.226 0.3653-14.236 0.25052-2.2437 1.1952-4.7908 1.8275-7.4567 1.1952-5.0342 2.7921-9.1158 4.7521-13.558 1.6863-3.82 2.1222-7.0785 5.4838-8.8125 1.0429 0.59261 1.2989 1.7449 1.8275 2.7117 1.0981 2.0083 2.0737 4.3758 1.097 8.134-0.36862 1.4178-1.342 2.9682-1.8265 4.7451-0.68533 2.5011-1.4556 5.2009-2.1939 7.4566-0.72067 2.1979-1.3022 4.0087-2.194 6.1008-0.65112 1.5335-1.0032 3.2425-1.4612 4.0676-1.6763 3.0165-6.3943 6.0162-6.5796 10.506 1.2449 0.27007 2.1465-1.0751 2.9246-1.6936 0.91818-0.73186 2.1156-1.4606 2.9245-2.3729 1.9468-2.1946 2.5526-4.7019 5.1185-6.4398 4.2897-2.9062 11.144-4.4567 17.911-5.0842 4.3692-0.40511 12.509-1.4487 14.255 2.0333-3.8339 1.1504-7.8874 2.6568-12.428 3.7284-4.1871 0.9876-8.576 2.4102-12.795 3.3895-3.1728 0.73599-6.7397 0.54014-9.5042 1.6946-3.4465 1.439-4.869 4.8015-7.6777 6.4404 0.71954 1.0287 0.87955 2.5749 0.73169 4.4067 6.1956 1.7039 4.5579 11.981-1.0959 11.864-1.6356-0.034012-3.9288-1.7977-4.3868-3.3893-1.1003-3.8253 1.832-7.3032 4.3868-8.8123 0.11142-1.2349-0.059631-2.2059-0.36639-3.0512-4.0811 2.543-8.7758 4.5159-11.333 8.4732-0.4039 10.205 2.5979 17.25 4.0215 25.759 2.9687-1.9204 3.6386-5.1777 5.1174-7.7939 3.5624-6.3013 9.1576-13.247 16.085-16.609 1.374-0.66589 2.8539-0.98235 4.7521-1.6936 2.1818-0.81949 4.2919-2.6234 6.945-2.3729 0.24719 4.1974-4.527 6.8105-7.6767 9.4916-6.2221 5.2952-14.042 9.9534-20.836 14.574-1.0793 1.7111-1.6035 3.9377-3.2898 5.0849 1.1731 3.2419 1.9324 8.502 3.2898 12.879 1.1467 3.6996 3.2965 6.9188 4.3857 10.168 0.48782-5.2736 1.587-9.8915 3.291-14.235 0.84094-2.1461 1.7834-4.4623 2.5581-5.7622 2.5339-4.2469 7.1028-6.5456 10.602-10.168 1.736-1.7956 2.61-4.3469 5.1174-5.4241-0.78686 5.3715-3.5293 8.9298-4.751 13.897-2.6652 2.1616-4.3791 5.2045-6.5797 7.7959-3.2722 0.93597-4.6572 3.981-6.5808 7.1177-1.9666 3.2099-1.928 3.0357-1.8264 7.1166 0.038605 1.6132-0.74161 2.2172 0 3.7284 1.843 3.7583 3.9222 7.999 5.4827 11.524 1.6444-0.39478 1.7481-2.2203 2.5592-3.3892 2.3441-0.031982 4.1429-2.2657 6.5797-2.711 8.2053-1.4967 17.822 0.52365 21.934 5.0839-8.5507 2.0389-17.148-0.67209-28.147-1.0174-0.68204 1.0638-1.0562 2.41-1.8287 3.3893 1.9159 6.4703 6.86 10.135 9.8706 15.591 1.2184 1.2442 4.6131 0.46902 4.3868 3.0501-0.84094 1.7627-1.619-0.94113-2.5592 0 0.11258 1.873 1.5252 0.55456 2.5592 1.6946 0.33551 3.4563 1.7702 7.1847 0.73059 10.846-1.1378-0.075226-0.61691-1.6864-0.73059-2.711-0.79126 0.62262-0.77032 1.9966-0.73169 3.3893 0.58932 1.14 1.1577-1.0659 1.8265 0 0.55951 1.0782 0.12799 1.4916 0 2.711 1.3508-0.22781 2.5802-0.77002 3.6562-0.33914 6.8026 2.9574 9.2537 9.9493 14.622 14.236 1.1212-2.576 1.822-5.5416 3.6551-7.4568 0.35095-3.6016-0.89282-5.7251-1.0959-8.8123 2.1167-0.42572 3.9718 1.7853 4.751 3.0512 0.52862 0.85867 0.81888 2.3935 1.4612 3.7274 0.47342 0.98029 1.4214 2.0935 1.8286 3.0512 0.63788 1.505 0.56946 3.3573 1.0959 4.7448 0.89832 2.3646 2.8683 4.7901 4.0215 7.4568 0.66547 1.5379 0.71622 3.0573 1.4622 4.4066 0.67761 1.2266 1.9269 2.1348 2.5592 3.3893 0.83874 1.6678 0.85864 3.4656 1.8265 4.7448 1.832 2.4193 5.007 3.2728 7.3113 5.0849 1.8717-6.8703-2.2635-11.951-3.6551-16.947-0.41605-1.4926-0.24612-3.1161-0.73169-4.4067-0.68314-1.8142-3.387-6.3322-5.1174-7.7959-0.91156-0.77002-2.3186-0.89679-3.2909-1.6936-3.7655-3.0955-5.6074-8.0341-8.7725-11.524-0.66217 0.96689-0.47897 2.7193-1.4622 3.3893-1.3497-0.82877-0.056335-3.1873 0.36639-4.4067-2.6244-3.6717-5.582-8.6608-5.1174-13.219 2.2094 0.54944 2.8318 2.5708 5.1174 3.0501 2.4555-1.5194 1.481-3.4532 1.4622-7.1177-0.027588-5.3684 0.77805-13.427 0-21.014-0.25714-2.5059-1.0142-5.7004-0.73169-9.1515 0.35315-4.317 1.9622-7.2176-1.0981-9.4896-2.8065 0.10825-1.9997 3.5676-4.751 3.7274 0.19641 1.6256 1.0484 2.6419 2.1928 3.3893 1.64 3.9047 0.86188 9.4298-3.291 9.1525-2.4301-0.16287-2.0703-2.0998-4.0204-3.3893 1.012-1.4348 0.83981-3.9665 1.4612-5.7622 0.87848-0.31543 0.96786-1.3617 2.5592-1.0164 0.80124-3.2264 2.471-5.6323 4.7565-7.4681zm-212.02-85.751c-0.4635 4.4726-2.141 10.514-2.5592 15.93-0.32114 4.1444-0.19421 7.6792 2.5592 8.8125 1.2195-3.0848 3.0824-7.0087 4.3868-11.524 1.9777-6.848 6.977-17.879 1.4623-23.387-3.0548 2.3655-2.7712 7.8257-5.8491 10.168zm171.08 9.49c-0.56174 2.0273-0.42932 4.0925-1.0959 6.1008-1.6057 4.8378-4.7731 10.166-4.3868 15.591 3.4278-3.4761 5.1682-8.0734 6.945-13.218 0.94357-2.7297 1.2206-5.3196 1.8275-8.1351 0.82883-3.8321 3.9089-7.8677 1.4623-11.523-0.99432 3.7423-3.643 7.1873-4.7521 11.185zm-13.159 27.115c-0.68424-1.538 1.4523-0.46076 1.097-1.6946-0.38623-2.4657-1.1444-4.5876-1.4611-7.1177-1.9059-1.3299-0.96457-3.1966-1.0981-5.0842-0.43368-6.1537-6.2762-17.011-11.697-17.625 1.4578 13.222 8.7383 21.046 13.159 31.522zm-159.01-1.3555c0.47235-4.5963 0.27924-9.4342-2.5592-12.541-0.44696 4.5524 0.51428 9.329 2.5592 12.541zm182.77-8.1342c-0.73279 0.6326 2.706-0.008972 2.9246-0.67838-1.3155-0.089783-1.7624 0.62653-2.9246 0.67838zm-6.9449 3.7286c1.2029-1.4878 5.251-2.1304 5.4827-3.3894-1.6234 1.0974-5.7586 1.6571-5.4827 3.3894zm-22.664 16.269c2.791-2.5162 6.0146-4.6922 5.4838-8.8123-0.10925-0.83701-1.3729-3.0306-2.194-4.7458-1.0948-2.2853-2.2834-4.6638-3.2899-5.0837 0.48892 6.5083-0.991 12.774 0 18.642zm12.063 4.4056c0.7659-0.7865 1.6422-2.8027 0.73059-4.0675h-1.097c-0.28473 0.91535-0.99765 3.714 0.36639 4.0675zm-60.682 51.858c-0.4017-5.1911 0.31454-11.251-0.73056-15.591-0.27591-1.1411-1.2007-2.2399-1.4623-3.3892-0.63455-2.7914-0.3631-5.9312-1.097-8.8123-0.59152-2.3224-2.0284-5.2117-1.4623-8.1351-4.037-5.1818-12.966-5.8282-17.546-10.507-3.3075 3.3728-4.8128 8.4165-7.3103 12.541-3.1122 1.4607-4.7819 3.881-6.946 6.1013-1.0109 1.037-2.6155 2.1111-3.2909 3.0501-1.6709 2.3265-1.6333 5.8106-3.2899 8.8123-1.0528 1.906-3.6054 3.2367-4.7532 5.0839-1.1985 1.9317-1.2007 4.4994-2.1939 6.4404 3.5977-0.27417 7.1833-0.10718 10.236-1.0164 2.1133-0.63086 4.9066-1.7884 6.5807-2.712 2.6321-1.4545 4.8834-4.7036 8.042-6.4404 1.7713-0.97308 3.5492-1.3668 5.1174-2.3719 2.7469-1.7637 4.4354-3.4315 6.2144-5.4241 0.48337-0.54114 2.1531-0.94214 1.4622-2.0338-3.7335 0.82465-6.7187 3.1223-9.8706 4.7448-1.5473 0.79575-3.2181 1.5802-4.7532 2.3729-4.7168 2.4337-7.7296 4.6499-11.332 7.7949-2.0924 1.8276-4.2919 3.7408-7.3103 4.4066 5.0192-8.1134 12.766-13.697 21.933-17.964 0.18097-1.64-0.51761-4.0943 0.73166-4.7448 1.992 0.18762 1.7834 2.4121 2.5581 3.7284 2.2183-0.84628 7.0388-2.2461 9.5053-0.67828-1.3563 4.3912-5.5721 6.1322-8.7747 8.8123 1.7713 3.7109-0.19534 7.2125-0.3642 10.508-0.23395 4.55 1.4601 9.338 1.0959 13.896-0.082764 1.0308-0.57828 2.0482-0.73169 3.0501-0.32556 2.141 0.38184 4.8582-1.4622 6.4405 1.0451-4.6726-0.71844-7.8733-1.4623-10.846-1.5186-6.0776-2.2149-15.389-0.73059-21.015-3.5205 1.2545-5.3403 4.0871-8.4072 5.7622 3.473 2.9099 4.8548 6.6291 6.5797 11.523 0.99765 2.8296 2.5648 5.9147 2.9245 8.1341 0.27258 1.6792-0.30572 3.549 0 5.423 0.48669 2.978 2.0935 5.5746 1.0959 9.1514 4.8426 3.1934 8.0772 7.8763 14.257 9.8287 3.4222 3.7192 7.3102 7.0053 10.236 11.185-1.6333-2.4172-0.69415-5.9539-1.097-9.1504-0.55508-4.4046-3.6154-7.8836-3.6551-12.203-0.14789-1.3318-1.6068-1.4472-1.8276-2.711 0.78906-0.50198 1.1246-1.104 1.4623-2.0338 2.2348-6.156-0.093842-9.5937-2.194-13.557-4.0248-7.6042-9.7205-15.119-8.0419-25.76 4.4111 1.4823 4.5192 7.4589 6.2144 11.862 0.84976 2.208 2.2204 3.8119 2.5581 6.1013 0.65994 4.4747-0.39621 9.1968 3.2898 11.862 2.0064-3.7738 0.35205-6.9899 0.002197-11.522zm-72.014-31.183c1.3221-0.58138 0.80563-4.3232-0.73059-4.4067-0.341 1.0927-1.0562 4.2902 0.73059 4.4067zm10.601 8.4742c0.13574 4.484 1.9512 8.0702 2.5593 11.524 0.4006 2.2708 0.8056 4.4098 1.097 6.4405 0.51648 3.6006-0.54626 6.0034 0.3653 8.134 0.74493-1.7802 0.72507-3.2903 0.3653-5.4241 0.26047-1.2266 1.2758-1.7544 1.4623-3.0501-1.2835-7.5702 0.98441-18.107-2.1929-23.726-0.88727-1.5709-2.6232-2.2657-3.2898-3.7284 0.41608 3.4563-0.4624 6.6682-0.36639 9.8297zm63.241 29.488c5.0136-3.2491 4.9794-9.1649 6.945-15.591 0.50763-1.6586 1.1455-2.8203 1.4623-4.4067 1.0517-5.2581 1.204-11.333-0.36533-16.608-0.080566-0.26386-0.30676-0.39377-0.73166-0.33911-3.9696 11.04-10.902 22.939-7.3102 36.945zm51.177-32.199c-0.36859-1.0267-2.407-2.2688-3.6551-1.3566 1.9379-0.4288 2.0737 2.5781 3.6551 1.3566zm-12.063 6.4384c1.2426-0.75763 1.2669-2.5141 0.73172-4.0675h-1.4623c-0.73279 1.1009-0.42267 3.6428 0.73056 4.0675zm-66.895 31.86c-3.7379-5.9096-6.5344-12.118-8.7747-18.98-2.4765 0.22263-3.8869 1.6163-5.4827 2.0348-1.9842 0.51953-3.8041-0.089691-6.2143 0.3381-1.6135 0.2876-3.1486 1.9843-5.1174 1.3555-0.75815 2.4616-2.5482 3.9655-2.9245 6.7785 0.52094 0.97 1.6996 0.74527 2.5593 1.3555 0.37631 0.26904 0.038605 1.0617 0.36526 1.3565 0.12695 0.1134 1.2482 0.2804 1.8276 0.67725 1.4236 0.9772 1.4965 1.2256 2.9245 2.0338 1.5241 0.86176 3.153 2.9275 4.0204 3.3893 2.1542 1.1483 4.7488 0.62259 6.946 1.6957 1.0617 0.51849 1.502 1.7235 2.5593 2.3719 2.1167 1.2988 4.5038 1.6781 6.5796 3.0512 0.88953 1.8864 2.5537 3.0553 4.0204 4.4066 1.6322-4.6211-0.90057-8.0845-3.2888-11.864zm-32.535 0.6783c0.10815-0.20718 0.90939-1.305 0-1.3555 0.34985 0.63187-1.0948 1.1339 0 1.3555zm63.606 3.0511c3.2302-0.17111 2.7524 3.0965 4.7532 4.0675-0.81998-2.4059-0.17325-5.2993 0.73059-7.1177-2.6089 0.29279-4.602 1.1556-5.4838 3.0501zm12.43 3.3893c2.1686-7.0836-7.1899-7.9217-7.6766-2.3729-0.15561 1.7606 1.1654 3.0718 2.1928 5.0849 3.1133 0.16083 5.0103-1.171 5.4838-2.712zm104.91-4.0675c0.062897-0.84833-0.56064-1.0607-1.097-1.3555-1.033 0.81433 0.36087 2.1812 1.097 1.3555zm-115.88 10.508h1.4623c0.76038-0.87311-0.065155-2.4502-0.73172-3.0512-0.75046 0.54633-0.84647 1.6987-0.73056 3.0512zm157.19 11.523c1.705-1.4741 4.8294-3.8995 5.1185-5.0839 1.118-4.5932-4.261-8.8113-9.5042-5.7611-0.13245 5.3241-2.0692 9.9276-1.8276 14.574 1.7536-0.37625 4.1297-1.9276 6.2133-3.7284zm-123.56-0.6783c-0.92148 1.1813-1.6068 2.7461-2.5581 4.0675-1.0087 1.3998-2.408 2.7718-2.9245 4.0675-1.545 3.8707-1.3188 9.3896-2.1939 13.897 3.5823-2.1534 5.7012-6.6352 8.043-10.846 2.2425-4.0315 4.6693-8.768 6.2133-12.88 0.78686-2.0946 1.1919-4.9643 0.36639-7.4568-0.68204 4.5551-4.4751 5.99-6.9461 9.1504zm-102.35-6.1003c0.1004-0.46075-0.22626-1.3236-0.3642-0.67722-0.10043 0.46075 0.22513 1.3225 0.3642 0.67722zm-4.3857 10.168c-0.097137-1.7946-2.7612-4.1778-4.3868-2.3719 1.9765 0.094818 3.3064 2.5728 4.3868 2.3719zm1.4623-0.3391c-0.2814-0.86588 1.4314-1.5586 0.36639-2.0327-0.33881 0.63702-1.9511 1.5678-0.36639 2.0327zm195.94 2.711c-0.86194 6.9404-1.9721 15.47-1.097 21.353 0.80454 5.4024 4.6395 9.7009 4.3857 14.914 1.8596-1.6843 2.7126-5.1488 2.9245-8.4732 0.53192-8.3113 0.60367-23.175-1.4612-27.794-0.8067-1.8049-2.7171-3.1017-4.0204-3.7284-0.005524 1.5833-0.5871 2.5657-0.73166 3.7284zm-38.747 12.542c-1.4148-3.2573-1.1908-10.051-6.2144-7.7959-1.2636 3.9346 1.279 8.3825 1.4623 13.558 0.27368 7.7372-2.6321 16.012-2.194 23.048 9.8011-2.3234 15.255-8.6783 16.816-18.641-4.7036-2.41-7.542-4.8108-9.8695-10.169zm-6.946 0.3381c-0.049683-1.6441-0.49551-3.6542-0.73059-5.423-0.10925-0.80917 0.6655-2.5595-0.73169-2.712 0.4613 2.5801-0.32004 6.092 1.4623 8.1351zm-150.97-2.3719c0.099335-0.46182-0.22623-1.3236-0.3653-0.67932-0.099304 0.46286 0.22626 1.3246 0.3653 0.67932zm153.9 31.86c-0.89062 0.86279 1.3563-1.006 1.8276 0-0.55844 1.8554-2.6784 2.2626-4.3879 3.0501-0.41492 3.4882-5.4518 4.0078-4.3857 7.7949 4.6859 1.6235 3.8251 11.315-1.4622 10.846-2.4346-0.21545-2.5769-2.307-4.3857-3.7274-2.2381 5.7426-7.0178 10.832-8.0431 17.286-6.232 6.7621-8.0088 17.654-13.525 25.082 5.1472 0.94012 9.7944-0.93491 13.525-2.3739 0.72177-1.139 0.026489-3.5893 1.4623-4.0665 1.0429 0.76999-0.51428 1.9864 0 3.3892 2.9036-0.81021 6.0113-1.4318 8.0419-3.0512 1.2791-3.3552 2.184-8.7917 5.8491-8.8123-2.247 1.9832-3.8196 4.5932-4.3857 8.134 5.0037 0.00824 7.2186-2.5718 10.601-4.0675-2.2591-3.5284-3.665-11.772 0.73166-14.235 2.7005 2.4677 2.0715 8.0217 3.6552 11.523 9.5671-1.1432-2.5868-17.56 9.1389-17.284 4.7719-11.711-2.9003-34.733 10.235-36.606 3.9299 5.1602 0.52646 10.413-0.36417 15.93-0.43924 2.7151-0.19205 5.589-0.73169 8.134-0.14789 0.69269-0.86301 1.271-1.0981 2.0327-0.30456 0.99264-0.061829 2.2018-0.3653 3.0512-1.2945 3.6232-3.9752 6.3435-5.4838 8.8123 2.4268 1.2534 3.8604 3.4263 6.9461 4.0675 5.7762-4.3592 9.5903-10.54 16.083-14.235-0.17874-1.07 0.65884-1.1978 0.36639-2.3729 0.89505-0.7525 1.9755-1.3318 3.2898-1.6946 1.9192-2.7904 4.2643-9.5338 1.0981-12.879 0.33108-0.59787 1.3464-0.56076 1.4612-1.3566-0.94467-2.4924-2.6751-4.5706-5.8491-4.0675-0.68533-0.64529-0.039734-0.85043 0-1.6936-4.5203-3.2346-8.4182-7.128-12.43-10.847-4.1606-3.8593-6.2508-9.237-8.0419-15.253-1.2118 1.5884-0.90936 4.5808-2.9246 5.4241 0.80124 2.5048 4.5446 5.6127 2.5592 8.4732-1.3651-0.76898-1.2812-2.879-2.9245-3.3893-1.2349 2.6955-0.8652 6.8796-2.9256 8.8123-0.52753 1.2813 1.0054 0.65042 0.73169 1.6946-1.9732 0.54218-2.4853 2.4409-3.6551 3.7274-3.0205 1.3802-4.5148 4.1747-8.0419 5.0849-0.42709-0.88751 1.1279-1.4576-0.3653-1.3565-0.93366 0.040222-1.279 0.62366-1.8264 1.0195zm99.795-26.776c-4.6969-3.0306-5.9352 5.4282-3.2898 7.4568h2.9245c2.0306-1.507 1.5318-5.3612 0.3653-7.4568zm-101.99 2.3719c-0.26816-2.9306-0.44473 0.39377-0.36639 0-0.19199 0.96173-0.32553 3.682 0 5.4241 0.1777-1.9163 0.45029-4.5087 0.36639-5.4241zm-151.7 7.7959c-0.081665 0.57724 0.41275 0.83804 0.36639 0 0.001129-2.1472 0.15341-4.4356-0.73169-5.7611-0.27255 2.2863 0.58823 3.5222 0.3653 5.7611zm4.0215 4.4067c-0.57278 0.88959-0.4812 2.0296-1.097 3.0501-2.599 4.3067-8.8972 8.3815-8.0419 13.896 6.9416-7.6867 14.976-16.166 17.546-26.776-2.0174 3.348-6.0003 6.0879-8.4072 9.8297zm58.123 0.6783c1.1565-0.52365 0.9281-2.8966-0.73172-2.712-0.50653 0.57004-0.84424 3.0367 0.73172 2.712zm198.49 2.3719c0.50763-1.0741 0.50763-2.9924 0-4.0675h-1.0959c-0.76038 1.0638-1.5583 4.4077 1.0959 4.0675zm-207.27 2.3729c0.42047-0.39996 0.41272-1.1988 0.36417-2.0348-0.53964-0.17627-0.92038-0.49994-1.4622-0.67722-1.1003 0.68652-0.86856 2.9811 1.0981 2.712zm147.68 7.4568c0.73056-3.1666 3.409-6.3271 2.1928-10.169-0.21631 3.6676-5.3558 6.5435-2.1928 10.169zm-40.211-4.7448c1.3376-0.80093 4.0061-2.1513 3.6551-3.3893-1.098 1.2411-3.1927 1.5576-3.6551 3.3893zm-96.14-2.0338c-0.28473 0.97824-1.7669 0.84628-2.5581 1.3555-1.3078 2.945-0.47565 7.5496 3.6551 7.4568 3.0349-1.5514 3.0062-8.4175-1.097-8.8123zm24.127 8.133c0.057404-1.2946-0.018738-2.4677-0.73059-3.0501 0.15564 1.0968-0.48224 2.9316 0.73059 3.0501zm57.026 0.3391c1.278 0.13095 2.0781-2.2935 0.36526-2.0327-0.42047 0.40097-0.41385 1.1978-0.36526 2.0327zm61.047 7.796c2.802-1.9225 5.1119-6.1023 5.1174-9.4895-1.268 3.5686-3.0349 6.6744-5.1174 9.4895zm-211.29 4.0675c1.2405-2.4646 3.0349-4.416 4.7532-6.4394-0.41937-1.7596-0.58713-3.7501-0.73172-5.7622-3.91 1.338-6.9582 7.7692-4.0215 12.202zm142.2-9.8287c0.56726 0.40817 1.4236 1.0823 2.1928 0.3381 0.15012-1.741-2.1133-2.2636-2.1928-0.3381zm-47.523 4.7448c-0.47345-1.0298-0.23618-2.7192-1.0959-3.3892-0.35757 1.5885 0.64008 3.68 1.0959 3.3892zm-94.311 17.963c0.22623 0.69275 1.438 2.4564 2.1939 3.7284 1.9004 3.2027 4.1142 5.4839 6.945 6.7796-0.56064-4.0418-4.2897-7.094-5.1174-11.524-0.95685-5.1138 1.3508-10.22 0-15.253-0.080566-0.26388-0.30682-0.39374-0.73169-0.33914-3.1199 3.8645-5.3315 10.375-3.2898 16.608zm201.78-7.7949c3.2732-1.5967 5.454-4.2077 7.3113-7.1166-2.6166 2.2069-4.3592 5.221-7.3113 7.1166zm-106.37-4.7448c0.048553-0.44428 0.055176-2.4523-0.3653-1.3555-0.049683 0.44632-0.056305 2.4512 0.3653 1.3555zm-87.734 8.4732c-0.58716-1.939-0.93475-4.1026-1.8265-5.7612-0.98993 2.2853 0.23947 4.8025 1.8265 5.7612zm87.002 0v-4.7448c-3.9906-2.0544-4.2467 4.7767 0 4.7448zm90.292 9.8287c-0.75156 0.73187-2.1322 1.5998-1.8286 2.712 4.1186-1.9441 6.3887-5.6003 9.1389-8.8123 2.5846-1.3627 6.8997-5.356 7.6777-6.1003-5.7199 3.1357-10.762 8.0815-14.988 12.201zm-89.196-8.4732c-0.03421 0.36075-0.97336 0.80298 0 1.3555 0.6644-2.1657 0.25714-4.0212 0-1.3555zm-88.462 4.4067c0.91708-1.7596-0.56616-3.9088-2.194-4.4067 0.31894 1.8513 0.5209 3.8119 2.194 4.4067zm88.462 5.7621c-0.40832 6.4549-4.794 12.276-3.6551 18.98 0.2251-9.2556 6.3964-16.318 3.2898-26.438-0.7052 2.576 0.522 4.9994 0.3653 7.4578zm-85.904 1.3555c1.3354 4.1779 1.364 8.9319 5.1174 9.4906-1.1654-6.4889-2.8881-12.462-5.8491-17.286-2.0704 2.779-0.32446 4.4892 0.73169 7.7949zm187.16 9.1515c-4.5148-5.6519-12.402-7.4414-20.106-10.168-1.8022-2.6739-6.402-5.7519-9.1389-2.0338v1.6946c2.3551 0.37625 1.491-2.2327 3.2899-2.3719 1.63 4.7963 3.9796 7.096 7.6777 9.8287 6.232 4.6067 12.818 8.4639 21.933 9.4906-1.6267-2.1121-2.1024-4.4963-3.6551-6.4404zm-27.051-10.507c-2.6299 0.6051-2.7601 4.9664-1.0981 6.7785 1.7945-0.48239 3.6717-0.88855 4.3857-2.3729-1.3276-1.2534-1.4876-3.5903-3.2876-4.4056zm-16.085 19.998c3.6662-1.5019 6.3115-4.7437 10.601-5.423 2.716-2.0018 3.8317-5.4859 7.3114-6.7796-0.040863-0.41235-0.10928-0.80301-0.73169-0.67828-0.06073 0.39481-0.57721 0.36798-1.0959 0.33914-3.0923 4.9612-9.6234 7.9392-14.989 10.507-1.5208 0.72775-3.1718 1.0164-4.7521 1.6947-1.7945 0.77103-3.1971 2.0636-5.1174 2.712-1.7624 0.59476-4.0877 0.19278-5.1185 2.0327 2.6453-0.49478 5.8215-1.8905 8.043-1.6936-1.0341 2.3172-5.5864 1.373-7.3113 3.0512 5.8469 3.6552 13.504-0.37726 20.471-0.67825 0.90494-0.96997 1.7062-2.0348 1.4622-4.0675-1.4545-0.57312-1.4038-2.542-2.9245-3.0512-3.3936 1.1494-6.5554 4.3139-10.602 3.7284 1.1533-1.6132 3.2523-1.0792 4.7543-1.6936zm14.988-7.4578c0.47125 0.46796 1.5881 0.33707 2.5593 0.33911 0.76477-2.68 3.7025-3.346 4.7532-5.7611-3.2523 1.0525-6.9681 1.675-7.3124 5.422zm-152.07-3.0502c0.016541-0.61847-0.77142-2.1688-1.097-1.3555 0.75375 0.091766 0.087189 1.5008 1.097 1.3555zm229.2 5.4231c2.2138-0.11237 6.0919-1.2349 8.7736-1.6936 2.0968-0.35873 5.7166-0.051575 5.8491-2.0338 0.13135-1.9688-4.463-2.5749-6.945-2.712-7.169-0.39478-20.687 2.1966-26.685 5.0849 5.3127 1.0277 12.259 1.7008 19.007 1.3545zm-238.7 1.3555c1.3309-0.1041 2.3782 0.054657 3.2898 0.33914 1.8032 2.3977 3.505 8.0042 0 9.8297h-3.6551c-0.18762 2.6502-2.0968 3.7057-3.6551 5.0849 6.3943 1.9864 13.256 4.4747 18.278 7.4568 1.7624 1.0453 2.7866 2.6966 4.7521 3.0512-3.0945-8.768-5.5511-18.127-8.4072-27.116-5.3822-0.31955-7.7605-3.4243-12.429-4.4056 0.097137 2.3935 1.9434 3.1666 1.8265 5.7601zm231.39 12.203c-1.1709-1.8524-1.7073-4.2933-2.5593-6.4394-6.8677-5.3828-17.104-9.4504-27.051-10.846 8.7736 6.5528 17.274 15.167 29.611 17.286zm-221.89-15.592c-1.2669 0.1536-3.0426-1.2503-4.0215-1.0164 0.80234 0.62463 2.5659 2.1224 4.0215 1.0164zm166.69-0.3391c-0.46796-0.018555-0.50659-0.435-1.0981-0.33914-0.56726 0.83389 1.2416 0.9968 1.0981 0.33914zm40.211 0.6793c-0.89282-0.18866-0.77914-1.3112-2.1939-1.0184-0.25827 1.0576 1.9015 1.5916 2.1939 1.0184zm-59.22 10.167c3.2093-1.7689 4.1926-5.6024 5.8491-8.8113-1.6024 0.018524-1.9566-1.1226-3.2898-1.3555-2.9908 1.472-3.1475 7.3836-2.5593 10.167zm17.181-6.4384c3.0868 0.86588 3.8118 3.9212 3.654 7.7949 6.2486-1.4864 1.8982-6.2343 2.1939-10.168h-5.1185c-0.60702 0.45148-0.1203 1.9193-0.72949 2.3729zm-173.27 5.0839c0.60367-0.89163 0.66327-3.6222-0.73166-3.7284 0.089355 1.3854-0.35538 3.2676 0.73166 3.7284zm170.35 0c1.3618 0.018555 1.0539-1.5091 1.097-2.712-0.97116 0.31851-1.864 1.8307-1.097 2.712zm-87.733 3.0501c-0.20639-1.338 1.5318-2.6254 0.36526-3.7284 0.41827 1.5349-1.5108 2.643-0.36526 3.7284zm-88.098-3.3893c-4.059-0.02475-3.59 5.5766-1.8287 7.4568 5.8601 1.8678 5.4385-6.1683 1.8287-7.4568zm86.27 7.4558c0.28696-0.9906 1.7757-2.6275 1.097-3.3883-0.10709 1.1576-1.8486 2.5584-1.097 3.3883zm-65.434-0.6772c-0.60367-0.005157-0.20529-0.93909-0.73172-1.0174-0.31342 0.69269 0.57501 1.8678 0.73172 1.0174zm63.24 8.4742c0.36423-1.0318 0.93808-3.6326 0.36639-4.4077-0.44693 0.84012-0.56174 5.1849-0.36639 4.4077zm-61.778-3.0511c0.098206-0.46185-0.22626-1.3236-0.36639-0.67831-0.098236 0.46286 0.22736 1.3236 0.36639 0.67831zm1.4623 5.0839c-0.39951-0.98544-0.3421-2.3945-1.097-3.0512-0.011047 1.3668 0.10483 2.6151 1.097 3.0512zm57.757 4.7448c0.43152-1.64 2.7744-3.2934 1.8276-5.0839-0.16223 1.8905-2.6619 3.3975-1.8276 5.0839zm66.53-0.6783c0.75266-0.79684 0.37961-2.6038-0.73169-2.7121-0.50546 0.57108-0.84317 3.0378 0.73169 2.7121zm-68.723 4.4066c0.2417-0.81329 1.8541-2.0956 1.097-2.712-0.096008 0.94934-2.0527 1.9121-1.097 2.712zm-53.371 3.7284c0.4657-0.59994 0.056274-3.4552-0.3653-3.0501 0.22732 0.9205-0.4646 2.6893 0.3653 3.0501zm160.48 2.3729h1.8276c0.77805-1.3297 0.31564-4.0212-1.4622-4.0675-0.73279 0.72052-1.1312 3.0244-0.36533 4.0675zm-30.34 4.7448c0.10709-0.20822 0.90939-1.305 0-1.3555-0.10812 0.20822-0.90933 1.305 0 1.3555zm-127.94 7.4568c0.036407-1.0504-0.16553-1.8802-0.73059-2.3729-0.036407 1.0504 0.16556 1.8812 0.73059 2.3729zm1.0959 13.219c0.24277-1.3689 0.85638-4.1644 0-5.423 0.24942 1.8224-1.1025 3.9346 0 5.423zm-0.7306 6.7785c-0.30017-1.6472 1.5903-3.0275 0.36639-4.4056-0.080566 1.2946-1.3663 3.2336-0.36639 4.4056zm0 6.7785c0.59924-0.54941 0.44037-2.1286-0.73169-2.0338 0.006653 0.89886-0.20196 1.9967 0.73169 2.0338zm-27.05 46.434c-1.0793 0.29581 0.84756 0.50815 0.3642 1.3555-3.8836 5.7766-7.6557 11.656-12.428 16.608 0.4249 1.1865 1.3696 1.8926 1.8265 3.0501 2.684-1.6915 3.4741-5.1406 6.5808-6.4394 0.32556 0.82465-1.6311 1.7431 0 1.6936 0.37634-1.6843 1.7327-2.4605 2.5581-3.7274v-1.6946c0.96014-1.7946 2.5217-2.2966 3.6551-3.7274 0.93475-1.1792 1.9159-3.6717 2.9246-5.7622 1.2548-2.5976 3.0459-5.5519 2.5592-7.1177-2.4367 2.1472-6.5366 2.7492-8.0408 5.7612zm-14.256 17.626c1.8-0.47006 2.961-2.1709 4.0204-3.3893 3.686-4.2418 6.4682-9.0061 9.1389-13.897-0.080597-0.26388-0.30572-0.39377-0.73059-0.33911-5.7575 3.9985-14.168 8.9102-12.429 17.626zm-6.2155 12.54c-2.2613 2.5306-4.389 4.8242-6.9461 6.4394-1.7944 1.136-4.0568 1.7946-5.8491 3.0512-2.2613 1.5874-4.2808 3.5511-6.5796 5.0839-2.3849 1.5916-4.5899 3.244-6.9461 4.7469-5.1814 3.3027-11.13 3.949-16.45 7.1166 2.6464 0.93698 2.1928 4.3139 1.4623 6.1013 3.3682-0.29587 5.1108-4.9572 10.236-4.7458 5.5014-3.6666 12.241-5.4251 17.181-9.8297 1.1158-0.99472 1.726-2.1853 2.9246-3.0512 1.2934-0.93182 2.9488-1.1761 4.3868-2.0327 1.4314-0.85346 3.1861-2.511 4.7521-3.7284 5.1317-3.9913 9.0561-7.2816 10.966-13.896-2.184 0.2175-0.21741-3.414-2.5592-3.0512-1.694 2.7398-4.2334 5.1736-6.5786 7.7959zm160.11 7.4579c1.8872 0.84833 3.0923 2.3296 4.0204 4.0665-0.51538-5.2839-0.59702-10.971-3.6551-13.897-1.1709 2.9687 0.86633 6.8662-0.3653 9.8308zm-1.8275 7.7949c1.6168-0.85657 0.42819-3.9747-0.73169-4.4066 0.39508 1.3287-0.84534 4.1747 0.73169 4.4066zm32.168-310.13c-0.063965-0.95865 0.31454-2.3255-0.73166-2.3729 0.063995 0.95862-0.31342 2.3255 0.73166 2.3729z"/>
  <path d="m388.37 17.034c0.65222 1.311-1.5649 2.5132-1.4612 4.4058-1.1489 0.17751-2.0405 0.59457-2.9256 1.0176-2.343 3.035-6.2894 4.6791-9.1378 7.1175-1.7481 1.4965-2.9665 3.8321-4.7521 5.4234-2.5858 2.3036-6.3336 3.7293-7.3113 7.7949-1.0219 0.52076-2.0626 1.0256-2.9257 1.695-0.35205-0.24038 0.87735-1.8797 1.4622-2.3725 0.99545-5.2178 3.8229-10.353 6.9461-14.236 3.963-4.9276 7.2319-9.922 13.89-10.846 2.2359-0.3112 4.2268 0.31429 6.2155 0z"/>
  <path d="m188.42 100.75c0.73492 0.27237-0.65314 1.3948-0.73062 2.0333 1.7087 2.3705 3.3539 4.7998 3.6552 8.4733 0.62195 1.0056 2.3748 0.96275 3.2905 1.695 3.241 4.729 0.16354 12.174-6.5799 10.508-0.38199-1.0017-1.8508-0.99567-1.4623-2.7117-9.639 1.5893-8.3962-12.599-1.0976-12.541-0.1958-1.3997-0.53583-2.6668-0.73059-4.0675 1.3654-0.9927 2.1692-2.5072 3.6552-3.3891zm1.8271 10.846c0.42932-4.3519-2.0832-5.9771-4.0211-8.1341-0.75964 4.6582 1.7668 6.2704 4.0211 8.1341zm0.3658 1.3559c-0.51541 3.1377-2.1908 5.1989-2.9246 8.1341 0.85864 1.1244 2.4619 1.5594 4.7528 1.3558 2.959-1.6122 3.1968-9.0719-1.0975-9.49h-0.73062zm-6.214 3.3891c1.2557 0.53077 1.7356-2.2697 0.36584-2.0343 0.007538 0.79915-0.63055 0.99869-0.36584 2.0343z"/>
 </g>
</svg>
