<svg id="Capa_1" enable-background="new 0 0 512 512" height="512" viewBox="0 0 512 512" width="512" xmlns="http://www.w3.org/2000/svg"><g><path d="m190.964 424.521c0 44.183 29.102 80 65 80s65-35.817 65-80z" fill="#4f4f4f"/><path d="m255.964 474.521c35.898 0 65-22.386 65-50 0-44.183-29.102-80-65-80s-65 35.817-65 80c0 27.614 29.101 50 65 50z" fill="#696969"/><circle cx="255.964" cy="397.021" fill="#353535" r="22.5"/><path d="m369.389 396.563c38.263 22.091 83.833 14.797 101.782-16.292s1.481-74.2-36.782-96.292z" fill="#353535"/><path d="m445.19 365.271c17.949-31.089 13.113-67.485-10.801-81.292-38.263-22.091-83.833-14.797-101.782 16.292s-1.481 74.2 36.782 96.292c23.914 13.807 57.852-.203 75.801-31.292z" fill="#4f4f4f"/><circle cx="378.073" cy="326.521" fill="#353535" r="22.5"/><path d="m434.389 228.063c38.263-22.091 54.731-65.203 36.782-96.292s-63.519-38.383-101.782-16.292z" fill="#0abf52"/><path d="m445.19 146.771c-17.949-31.089-51.887-45.099-75.801-31.292-38.263 22.091-54.731 65.203-36.782 96.292s63.519 38.383 101.782 16.292c23.914-13.807 28.75-50.203 10.801-81.292z" fill="#5cc563"/><circle cx="378.073" cy="185.521" fill="#1da575" r="22.5"/><path d="m320.964 87.521c0-44.183-29.102-80-65-80s-65 35.817-65 80z" fill="#5cc563"/><path d="m255.964 37.521c-35.898 0-65 22.386-65 50 0 44.183 29.102 80 65 80s65-35.817 65-80c0-27.614-29.102-50-65-50z" fill="#92d183"/><circle cx="255.964" cy="115.021" fill="#0abf52" r="22.5"/><path d="m142.538 115.479c-38.263-22.091-83.833-14.797-101.782 16.292s-1.481 74.2 36.782 96.292z" fill="#0abf52"/><path d="m66.737 146.771c-17.949 31.089-13.113 67.485 10.801 81.292 38.263 22.091 83.833 14.797 101.782-16.292s1.481-74.2-36.782-96.292c-23.914-13.807-57.852.203-75.801 31.292z" fill="#5cc563"/><circle cx="133.854" cy="185.521" fill="#1da575" r="22.5"/><path d="m77.538 283.979c-38.263 22.091-54.731 65.203-36.782 96.292s63.519 38.383 101.782 16.292z" fill="#5cc563"/><path d="m66.737 365.271c17.949 31.089 51.887 45.099 75.801 31.292 38.263-22.091 54.731-65.203 36.782-96.292s-63.519-38.383-101.782-16.292c-23.914 13.807-28.75 50.203-10.801 81.292z" fill="#92d183"/><circle cx="133.854" cy="326.521" fill="#0abf52" r="22.5"/><path d="m256 337c-39.977 0-72.5 39.252-72.5 87.5s32.523 87.5 72.5 87.5 72.5-39.252 72.5-87.5-32.523-87.5-72.5-87.5zm0 160c-31.706 0-57.5-32.523-57.5-72.5s25.794-72.5 57.5-72.5 57.5 32.523 57.5 72.5-25.794 72.5-57.5 72.5z"/><path d="m256 367c-16.542 0-30 13.458-30 30s13.458 30 30 30 30-13.458 30-30-13.458-30-30-30zm0 45c-8.271 0-15-6.729-15-15s6.729-15 15-15 15 6.729 15 15-6.729 15-15 15z"/><path d="m438.175 277.463c-41.784-24.124-92.039-15.584-112.027 19.037s-2.257 82.413 39.527 106.537 92.039 15.584 112.028-19.037c19.988-34.621 2.256-82.413-39.528-106.537zm26.537 99.037c-15.853 27.458-56.916 33.535-91.537 13.546s-49.89-58.588-34.037-86.046 56.916-33.535 91.537-13.547 49.89 58.589 34.037 86.047z"/><path d="m393.109 300.519c-14.326-8.271-32.71-3.345-40.981 10.981s-3.345 32.71 10.981 40.981 32.71 3.345 40.981-10.981 3.345-32.71-10.981-40.981zm-2.009 33.481c-4.136 7.163-13.327 9.626-20.49 5.49s-9.626-13.327-5.49-20.49c4.135-7.163 13.327-9.626 20.49-5.49s9.625 13.327 5.49 20.49z"/><path d="m326.148 215.5c19.988 34.621 70.243 43.161 112.027 19.037s59.516-71.916 39.527-106.537c-19.988-34.621-70.243-43.161-112.027-19.037s-59.515 71.916-39.527 106.537zm47.027-93.547c34.621-19.988 75.684-13.911 91.537 13.547s.584 66.058-34.037 86.046-75.684 13.912-91.537-13.546c-15.852-27.458-.583-66.058 34.037-86.047z"/><path d="m393.109 211.481c14.326-8.271 19.252-26.655 10.981-40.981s-26.655-19.252-40.981-10.981-19.252 26.655-10.981 40.981c8.272 14.326 26.656 19.252 40.981 10.981zm-22.5-38.971c7.163-4.136 16.355-1.672 20.49 5.49 4.136 7.163 1.673 16.354-5.49 20.49s-16.354 1.673-20.49-5.49c-4.135-7.163-1.673-16.355 5.49-20.49z"/><path d="m256 175c39.977 0 72.5-39.252 72.5-87.5s-32.523-87.5-72.5-87.5-72.5 39.252-72.5 87.5 32.523 87.5 72.5 87.5zm0-160c31.706 0 57.5 32.523 57.5 72.5s-25.794 72.5-57.5 72.5-57.5-32.523-57.5-72.5 25.794-72.5 57.5-72.5z"/><path d="m256 145c16.542 0 30-13.458 30-30s-13.458-30-30-30-30 13.458-30 30 13.458 30 30 30zm0-45c8.271 0 15 6.729 15 15s-6.729 15-15 15-15-6.729-15-15 6.729-15 15-15z"/><path d="m73.825 234.537c41.784 24.124 92.039 15.584 112.027-19.037s2.257-82.413-39.527-106.537-92.039-15.584-112.028 19.037c-19.988 34.621-2.256 82.413 39.528 106.537zm-26.537-99.037c15.853-27.458 56.916-33.535 91.537-13.547s49.89 58.589 34.037 86.047-56.916 33.535-91.537 13.546-49.89-58.588-34.037-86.046z"/><path d="m118.89 211.481c14.326 8.271 32.71 3.345 40.981-10.981s3.345-32.71-10.981-40.981-32.71-3.345-40.981 10.981c-8.27 14.326-3.344 32.71 10.981 40.981zm2.01-33.481c4.135-7.163 13.327-9.626 20.49-5.49s9.626 13.328 5.49 20.49c-4.136 7.163-13.327 9.626-20.49 5.49s-9.626-13.327-5.49-20.49z"/><path d="m185.852 296.5c-19.988-34.621-70.243-43.161-112.027-19.037s-59.516 71.916-39.528 106.537c9.212 15.956 25.189 26.994 44.99 31.083 4.057.837 8.024-1.772 8.862-5.828.839-4.059-1.772-8.025-5.828-8.862-15.55-3.211-27.991-11.695-35.033-23.892-15.853-27.458-.584-66.058 34.037-86.047s75.684-13.911 91.537 13.547.584 66.058-34.037 86.046c-9.152 5.284-18.895 8.844-28.959 10.582-4.082.705-6.82 4.584-6.115 8.666s4.585 6.82 8.666 6.115c11.812-2.039 23.22-6.202 33.908-12.373 41.784-24.124 59.515-71.916 39.527-106.537z"/><path d="m148.89 352.481c14.326-8.271 19.252-26.655 10.981-40.981s-26.655-19.252-40.981-10.981-19.252 26.655-10.981 40.981c8.272 14.326 26.656 19.252 40.981 10.981zm-22.5-38.971c7.163-4.136 16.355-1.673 20.49 5.49 4.136 7.163 1.673 16.354-5.49 20.49s-16.355 1.673-20.49-5.49-1.673-16.355 5.49-20.49z"/></g></svg>