<svg id="Capa_1" enable-background="new 0 0 512.012 512.012" height="512" viewBox="0 0 512.012 512.012" width="512" xmlns="http://www.w3.org/2000/svg"><g><g><g><g><g><g><path d="m178.606 102.499c-43.286 7.601-79.577 27.032-100.661 51.016-2.217 2.521-1.526 6.455 1.417 8.07 27.994 15.365 68.734 21.269 112.02 13.667 43.285-7.601 79.604-27.037 100.692-51.021 2.217-2.521 1.526-6.455-1.417-8.071-27.997-15.364-68.765-21.263-112.051-13.661z" fill="#1ec186"/><path d="m290.656 116.158c-27.995-15.364-68.769-21.259-112.047-13.659-43.293 7.602-79.575 27.029-100.66 51.012-2.216 2.521-1.532 6.461 1.411 8.077 5.377 2.95 11.22 5.548 17.464 7.774 21.509-17.752 51.928-31.614 86.896-37.762 34.97-6.133 68.301-3.459 94.577 5.894 5.112-4.22 9.726-8.661 13.776-13.267 2.216-2.523 1.526-6.454-1.417-8.069z" fill="#1eb07c"/></g></g></g><g><g><g><path d="m238.467 34.898c-34.691-21.373-71.813-30.238-101.193-26.587-3.089.384-5.031 3.536-3.985 6.468 9.952 27.884 34.565 57.053 69.256 78.426 34.69 21.372 71.835 30.251 101.218 26.602 3.089-.384 5.031-3.536 3.985-6.468-9.955-27.886-34.591-57.069-69.281-78.441z" fill="#27e19d"/><path d="m307.749 113.336c-9.954-27.884-34.595-57.068-69.28-78.437-34.696-21.376-71.809-30.238-101.19-26.588-3.089.384-5.039 3.537-3.993 6.468 1.912 5.355 4.364 10.753 7.324 16.139 25.84.931 55.462 10.043 83.491 27.303 28.021 17.272 49.485 39.642 61.947 62.3 6.142.221 12.075-.019 17.718-.719 3.088-.384 5.029-3.535 3.983-6.466z" fill="#26d192"/></g></g></g><g><g><g><path d="m442.031 237.498c27.158 41.058 39.308 85.538 36.042 121.158-.343 3.745-4.074 6.213-7.655 5.063-34.058-10.932-70.238-39.518-97.396-80.575s-39.325-85.564-36.062-121.187c.343-3.745 4.075-6.213 7.655-5.064 34.06 10.935 70.258 39.547 97.416 80.605z" fill="#27e19d"/><path d="m344.619 156.892c34.058 10.934 70.257 39.553 97.41 80.604 27.162 41.064 39.309 85.534 36.045 121.154-.343 3.745-4.075 6.223-7.655 5.073-6.541-2.101-13.154-4.851-19.773-8.215-2.13-31.165-14.286-66.581-36.219-99.754-21.947-33.164-49.794-58.211-77.639-72.377-.506-7.408-.448-14.581.179-21.423.342-3.745 4.071-6.212 7.652-5.062z" fill="#26d192"/></g></g></g><g><g><g><path d="m404.343 85.103c-60.465 7.256-114.11 23.723-159.444 48.944-36.552 20.334-67.783 46.35-92.824 77.325-42.873 53.03-52.682 102.037-53.079 104.098-1.389 7.213 3.326 14.173 10.536 15.579.86.168 1.714.248 2.558.248 6.237 0 11.812-4.412 13.065-10.759.087-.437 8.817-42.972 45.205-89.351 6.348 59.315 33.157 108.383 34.497 110.804 2.432 4.392 6.979 6.872 11.668 6.872 2.183 0 4.397-.538 6.442-1.67 6.437-3.564 8.765-11.672 5.201-18.109-.345-.623-33.724-61.699-32.462-125.947 18.421-17.793 39.509-33.302 63.011-46.283 23.937-13.221 50.451-23.842 79.27-31.802-8.879 13.238-14.983 29.206-18.101 47.649-5.172 30.598-.211 57.295.002 58.416 1.217 6.384 6.798 10.82 13.066 10.82.821 0 1.655-.076 2.491-.234 7.221-1.364 11.973-8.328 10.623-15.552-.044-.234-4.327-23.723.209-49.693 5.583-31.966 21.667-53.178 47.8-63.086 4.443-.651 8.913-1.268 13.44-1.811" fill="#ba5d4f"/></g><g><ellipse cx="344.661" cy="307.898" fill="#7a6e79" rx="72.705" ry="91.527" transform="matrix(.971 -.239 .239 .971 -63.486 91.084)"/><path d="m366.491 396.781c-8.3 2.04-16.62 2.54-24.72 1.52 34.77-12.44 54.86-50.85 41.78-104.13-10.98-44.67-37.79-69.28-67.72-73.06 2.27-.81 4.61-1.51 7-2.1 39-9.58 78.5 14.79 92.44 71.55 13.93 56.75-9.79 96.65-48.78 106.22z" fill="#685e67"/></g><g><ellipse cx="113.478" cy="403.717" fill="#e8b66b" rx="80.068" ry="100.795"/><path d="m193.541 403.721c0 64.36-35.84 100.79-80.06 100.79-13.36 0-25.97-3.33-37.04-9.75 1.2.06 2.41.09 3.63.09 44.22 0 80.07-36.44 80.07-100.8 0-44.91-17.45-76.22-43.03-91.04 42.54 1.94 76.43 38.11 76.43 100.71z" fill="#d7a964"/></g><g><ellipse cx="245.128" cy="391.384" fill="#fac574" rx="80.068" ry="100.795" transform="matrix(.894 -.448 .448 .894 -149.277 151.147)"/><path d="m290.251 481.511c-7.21 3.61-14.71 6.01-22.34 7.17 32.9-22.29 44.21-67.76 17.65-120.81-23.56-47.06-60.19-66.69-94.38-61.45 2.79-1.9 5.73-3.62 8.82-5.17 39.54-19.79 87.91-3.26 116.72 54.29 28.82 57.55 13.07 106.18-26.47 125.97z" fill="#e8b66b"/></g></g></g></g><g><ellipse cx="270.844" cy="441.374" fill="#ba5d4f" rx="30.731" ry="18.719" transform="matrix(.91 -.415 .415 .91 -158.695 152.127)"/><path d="m278.611 458.411c-15.45 7.04-31.44 5.12-35.73-4.29-.15-.33-.29-.67-.4-1.02 6.31.6 13.86-.72 21.29-4.1 14.89-6.79 23.83-19.44 20.59-28.76 6.83.63 12.22 3.5 14.44 8.38 4.29 9.41-4.75 22.75-20.19 29.79z" fill="#a34f41"/></g><g><ellipse cx="115.102" cy="458.14" fill="#a34f41" rx="30.731" ry="18.719" transform="matrix(.999 -.053 .053 .999 -24.304 6.801)"/><path d="m116.101 476.831c-13.51.73-25.25-3.98-29.75-11.14 4.09.97 8.63 1.39 13.4 1.14 16.95-.91 30.24-10.01 29.69-20.34-.11-2.1-.78-4.08-1.94-5.9 10.45 2.46 17.89 8.48 18.29 15.91.551 10.32-12.74 19.43-29.69 20.33z" fill="#873f30"/></g></g><g><path d="m448.287 233.36c-23.637-35.736-55.415-64.034-87.846-78.421 7.348-16.39 19.24-27.879 35.552-34.268 4.666-.679 8.632-1.21 12.419-1.666 4.113-.494 7.047-4.228 6.553-8.34-.494-4.114-4.247-7.05-8.34-6.552-4.142.497-8.474 1.081-13.634 1.837-.537.079-1.063.216-1.571.408-28.788 10.915-46.462 34.066-52.528 68.808-2.236 12.798-2.438 24.985-2.013 34.375-3.854.126-7.732.544-11.613 1.275-.487-9.938-.328-22.997 2.017-36.867 2.921-17.276 8.618-32.323 16.934-44.722 1.747-2.604 1.689-6.021-.146-8.564-1.834-2.544-5.056-3.678-8.08-2.843-29.355 8.109-56.574 19.032-80.898 32.467-23.968 13.238-45.701 29.204-64.597 47.454-1.426 1.378-2.249 3.265-2.288 5.247-.654 33.328 7.781 65.675 15.666 88.355-2.434.949-4.845 2.012-7.225 3.204-1.16.581-2.291 1.196-3.413 1.823-7.957-22.564-13.144-44.733-15.418-65.981-.324-3.035-2.456-5.57-5.39-6.412-2.933-.84-6.085.179-7.968 2.58-20.825 26.543-32.889 51.877-39.599 69.655-3.732-.508-7.527-.79-11.381-.79-.27 0-.536.015-.805.018 6.821-18.99 20.256-48.458 45.234-79.352 24.435-30.224 54.93-55.621 90.639-75.486 44.478-24.745 97.196-40.912 156.691-48.051 4.112-.494 7.047-4.228 6.553-8.34-.493-4.113-4.238-7.042-8.34-6.553-33.503 4.021-64.946 10.856-94.119 20.388-13.063-26.087-37.168-51.197-66.93-69.532-35.043-21.591-73.694-31.668-106.054-27.646-3.742.465-7.023 2.574-9.003 5.787-1.979 3.213-2.388 7.092-1.12 10.645 9.942 27.856 32.578 55.125 62.855 76.065-3.926.482-7.854 1.059-11.772 1.747-43.594 7.655-81.863 27.137-104.996 53.451-2.567 2.92-3.653 6.792-2.98 10.624s3.013 7.102 6.422 8.973c18.757 10.295 42.374 16.4 68.296 17.657.124.006.247.009.369.009 3.976 0 7.291-3.124 7.485-7.137.2-4.137-2.991-7.653-7.128-7.854-22.491-1.09-42.914-6.088-59.284-14.486 21.111-22.729 55.321-39.598 94.41-46.462 10.45-1.836 20.969-2.883 31.285-3.129 12.921 6.802 26.22 12.081 39.475 15.695-3.172 1.643-6.314 3.319-9.411 5.042-37.396 20.804-69.362 47.438-95.01 79.164-29.457 36.434-43.726 71.145-50.022 90.543-13.832 2.892-26.468 9.296-37.16 18.97-3.071 2.779-3.309 7.522-.529 10.593 2.778 3.072 7.521 3.308 10.594.53 12.198-11.037 27.535-16.871 44.354-16.871 18.328 0 34.568 6.749 47.172 19.542-2.931 5.729-5.234 11.861-6.805 18.356-6.009 24.854-1.521 53.301 12.98 82.266 3.458 6.908 7.238 13.337 11.302 19.267-11.593 29.581-35.593 47.159-64.65 47.159-43.405 0-72.568-37.493-72.568-93.295 0-19.75 3.499-37.206 10.399-51.883 1.763-3.749.152-8.216-3.596-9.978-3.746-1.761-8.217-.153-9.979 3.596-7.847 16.689-11.825 36.292-11.825 58.265 0 32.392 8.722 59.838 25.222 79.373 15.755 18.651 37.896 28.923 62.347 28.923 32.767 0 60.152-17.993 75.119-48.705 10.741 12.115 22.977 21.241 36.315 26.963 10.463 4.488 21.35 6.725 32.209 6.725 12.429 0 24.82-2.932 36.488-8.773 21.863-10.946 37.064-30.043 42.802-53.773 2.23-9.223 3.011-18.942 2.375-28.997 3.694.579 7.421.88 11.173.88 6.055 0 12.175-.754 18.32-2.263 21.762-5.344 39.224-19.326 49.169-39.37 10.394-20.948 12.158-47.203 5.104-75.927-7.054-28.725-20.78-51.176-39.694-64.926-9.443-6.865-19.94-11.294-30.906-13.226-.493-8.746-.441-20.529 1.716-32.871.518-2.966 1.138-5.824 1.85-8.585 29.462 13.393 58.443 39.491 80.259 72.472 24.911 37.661 37.602 79.181 34.998 114.3-6.781-2.315-13.72-5.405-20.656-9.2-3.633-1.988-8.19-.654-10.18 2.979-1.987 3.634-.653 8.191 2.98 10.18 8.43 4.612 16.911 8.301 25.208 10.964 1.347.433 2.729.646 4.104.646 2.588 0 5.144-.756 7.367-2.227 3.405-2.252 5.572-5.874 5.945-9.938 3.564-38.882-10.015-84.8-37.256-125.983zm-241.808-146.541c-30.966-19.078-54.447-44.954-64.942-71.421 28.352-2.526 62.031 6.808 92.997 25.885 26.772 16.495 48.463 38.709 60.481 61.717-7.489 2.75-14.806 5.699-21.967 8.824-22.073-3.13-45.078-11.765-66.569-25.005zm-3.308 119.558c17.415-16.44 37.308-30.883 59.172-42.959 18.424-10.176 38.615-18.856 60.217-25.898-4.617 10.275-7.988 21.625-10.069 33.93-2.852 16.874-2.743 32.564-1.999 43.674-13.93 5.593-25.51 15.022-33.865 27.697-8.879 13.47-13.652 30.094-14.051 48.555-14.423-5.604-29.57-6.991-44.272-4.194-7.292-20.8-15.184-50.367-15.133-80.805zm-63.558 93.251c5.123-13.205 13.277-30.465 25.926-49.125 3.158 17.843 8.167 36.148 14.922 54.649-4.291 3.586-8.171 7.568-11.586 11.92-8.516-7.938-18.438-13.832-29.262-17.444zm182.218 131.295c-4.682 19.365-17.09 34.951-34.937 43.886-38.814 19.433-81.675-1.039-106.656-50.938s-15.688-96.48 23.124-115.911c9.527-4.77 19.643-7.163 29.789-7.163 8.86 0 17.744 1.826 26.28 5.487 20.2 8.666 37.692 26.859 50.587 52.614 12.894 25.754 16.979 50.66 11.813 72.025zm86.154-138.576c6.198 25.238 4.823 47.951-3.975 65.683-7.949 16.021-21.909 27.197-39.309 31.47-9.524 2.338-18.929 2.42-28.006.264-2.466-12.254-6.901-24.868-13.266-37.581-11.895-23.758-27.552-41.911-45.764-53.235-1.775-37.333 16.055-65.064 46.956-72.652 37.873-9.303 71.376 17.244 83.364 66.051z"/><path d="m286.018 412.869c-8.095-.97-17.348.68-26.052 4.648-19.505 8.893-30.008 26.338-23.909 39.716 3.827 8.393 13.146 12.903 24.378 12.903 6.671 0 14.017-1.591 21.285-4.905 8.704-3.968 16.018-9.87 20.594-16.618 5.262-7.76 6.471-16.179 3.315-23.099-3.155-6.919-10.303-11.528-19.611-12.645zm3.882 27.325c-3.009 4.437-8.259 8.587-14.402 11.389-11.905 5.427-23.64 4.148-25.792-.571-2.152-4.721 4.579-14.418 16.483-19.846 5.085-2.318 10.466-3.567 15.188-3.567.982 0 1.938.054 2.855.164 3.991.479 6.815 1.927 7.749 3.974.933 2.048.175 5.13-2.081 8.457z"/><path d="m113.354 484.407c1.038 0 2.089-.028 3.148-.084 9.552-.511 18.517-3.33 25.243-7.937 7.735-5.298 11.938-12.693 11.532-20.287s-5.374-14.498-13.63-18.941c-7.179-3.864-16.391-5.709-25.946-5.2-21.407 1.145-37.562 13.542-36.776 28.224.747 13.955 16.49 24.225 36.429 24.225zm1.148-37.47c.764-.041 1.524-.061 2.281-.061 5.926 0 11.57 1.238 15.756 3.491 3.54 1.905 5.64 4.286 5.76 6.533.12 2.247-1.713 4.838-5.029 7.11-4.423 3.029-10.826 4.973-17.568 5.334-13.092.693-23.521-4.783-23.798-9.963-.277-5.181 9.534-11.745 22.598-12.444z"/></g></g></svg>