<svg id="Capa_1" enable-background="new 0 0 512 512" height="512" viewBox="0 0 512 512" width="512" xmlns="http://www.w3.org/2000/svg"><g><g><g clip-rule="evenodd" fill-rule="evenodd"><path d="m102.963 226.537c0 12.048 7.654 21.816 17.096 21.816s17.096-9.767 17.096-21.816-7.654-21.816-17.096-21.816-17.096 9.768-17.096 21.816zm275.135-14.48c0 12.048 7.654 21.816 17.096 21.816s17.096-9.767 17.096-21.816c0-12.048-7.654-21.816-17.096-21.816s-17.096 9.768-17.096 21.816zm-65.054-50.786c0 12.048 7.654 21.816 17.096 21.816s17.096-9.767 17.096-21.816-7.654-21.816-17.096-21.816-17.096 9.768-17.096 21.816zm-74.388-81.131c0 12.048 7.654 21.816 17.096 21.816s17.096-9.767 17.096-21.816c0-12.048-7.654-21.816-17.096-21.816-9.441 0-17.096 9.768-17.096 21.816zm-6.085 101.027c0 12.048 7.654 21.816 17.096 21.816s17.096-9.767 17.096-21.816c0-12.048-7.654-21.816-17.096-21.816-9.442.001-17.096 9.768-17.096 21.816zm-80.473-39.098c0 12.048 7.654 21.816 17.096 21.816s17.096-9.767 17.096-21.816c0-12.048-7.654-21.816-17.096-21.816s-17.096 9.767-17.096 21.816z" fill="#7bdaa9"/><path d="m137.156 226.537c0 12.048-7.654 21.816-17.096 21.816s-17.096-9.767-17.096-21.816 7.654-21.816 17.096-21.816 17.096 9.768 17.096 21.816zm118.597-124.581c-9.442 0-17.096-9.767-17.096-21.816 0-12.048 7.654-21.816 17.096-21.816s17.096 9.767 17.096 21.816c0 12.048-7.654 21.816-17.096 21.816zm122.345 110.101c0-12.048 7.654-21.816 17.096-21.816s17.096 9.767 17.096 21.816c0 12.048-7.654 21.816-17.096 21.816s-17.096-9.767-17.096-21.816zm-128.431-9.074c-9.442 0-17.096-9.767-17.096-21.816 0-12.048 7.654-21.816 17.096-21.816s17.096 9.767 17.096 21.816c.001 12.049-7.653 21.816-17.096 21.816zm63.377-41.712c0-12.048 7.654-21.816 17.096-21.816s17.096 9.767 17.096 21.816-7.654 21.816-17.096 21.816-17.096-9.767-17.096-21.816zm-126.753-19.202c0 12.048-7.654 21.816-17.096 21.816s-17.096-9.767-17.096-21.816c0-12.048 7.654-21.816 17.096-21.816s17.096 9.767 17.096 21.816zm84.123-134.569c-16.798 0-31.912 7.205-42.425 18.691-28.127-11.852-60.571 5.937-65.081 36.637-12.22-14.996-34.283-17.244-49.278-5.024-14.694 11.974-17.146 33.398-5.742 48.363-11.926-2.415-24.799.336-34.968 8.623-18.023 14.687-20.726 41.204-6.038 59.226-13.594 8.324-18.458 25.796-11.224 39.879-15.311 8.593-25.658 24.979-25.658 43.785 0 27.712 22.465 50.178 50.177 50.178 15.677 0 29.673-7.191 38.875-18.453 40.243 19.161 88.253-8.422 90.801-53.834 14.018 9.104 30.731 12.887 47.284 10.84 15.892 15.455 42.101 13.373 55.358-4.468 17.845 31.991 57.512 45.221 90.959 30.123 5.925 15.129 20.65 25.843 37.879 25.843 22.459 0 40.666-18.207 40.666-40.666 0-16.887-10.295-31.367-24.949-37.514 6.162-12.607 6.218-27.191.659-39.678 10.259-19.747 1.042-44.362-20.012-52.34 5.09-9.449 4.514-21.401-2.439-30.47-9.452-12.328-27.108-14.66-39.436-5.209-9.392-28.918-39.741-45.284-68.898-37.687-4.996-26.665-28.394-46.845-56.51-46.845z" fill="#8edf78"/><path d="m287.454 316.322-33.292 25.746 33.036 26.218 67.575-62.276 13.231-28.022c-11.855-1.098-23.321-5.165-33.243-11.837l-14.016 24.425z" fill="#d1a184"/><path d="m282.088 430.681-59.497-60.106-24.129 60.293 80.038 43.632z" fill="#d1a184"/><path d="m278.5 474.5-80.038-43.631-17.461 43.631c-6.131 15.319-21 30-37.5 30h164.999c-16.5 0-31.346-13.562-30-30z" fill="#d1a184"/><path d="m171.499 318.962 110.59 111.719 5.109-62.395-77.289-61.337-17.08-31.579c-8.07 8.635-18.519 15.019-30.302 18.107z" fill="#d1a184"/><path d="m203.92 295.876-11.091-20.506c-8.07 8.635-18.519 15.019-30.302 18.107l7.467 21.211c12.561-3.65 24.19-10.111 33.926-18.812zm154.026 3.415 10.059-21.302c-11.855-1.098-23.321-5.165-33.243-11.837l-11.212 19.538c10.465 6.773 22.182 11.392 34.396 13.601zm-79.446 175.209-80.038-43.631-8.419 21.036 96.481 52.595h21.976c-16.002 0-31.374-13.219-30-30zm3.588-43.819-2.419 29.539-66.193-66.869 9.115-22.775zm-9.595-102.789-18.331 14.176 33.036 26.218 16.747-15.433z" fill="#c97e67"/><path d="m265.087 222.756c7.734 7.521 18.003 18.03 29.349 5.767l20.756-22.432 16.953 24.892c14.048 20.626 39.282 30.855 62.053 20.577l21.575-9.739 8.632 22.04c8.277 21.135 38.457 18.002 56.725 1.777-3.868 18.431-20.215 32.271-39.796 32.271-17.229 0-31.954-10.715-37.879-25.843-33.447 15.097-73.114 1.868-90.959-30.123-13.257 17.841-39.466 19.922-55.358 4.468-16.553 2.047-33.266-1.736-47.284-10.84-2.549 45.412-50.559 72.995-90.801 53.834-9.201 11.262-23.198 18.453-38.875 18.453-22.252 0-41.117-14.486-47.689-34.54 20.939 12.968 53.996 20.387 69.141 1.851l11.164-13.664 15.932 7.586c26.191 12.471 56.848-5.74 58.664-34.78l2.174-34.757c30.132 15.876 39.923 27.605 75.523 23.202z" fill="#6ad34d"/></g><g><path d="m364.426 114.345h-15v-15h15zm-30-15h-15.001v-15h15.001z" fill="#fff"/></g></g><g><path d="m218.501 497h15v15h-15z"/><path d="m466.568 216.203c3.854-11.66 3.639-24.304-.678-35.943 4.469-10.61 4.696-22.64.539-33.527-3.665-9.601-10.479-17.593-19.195-22.732 2.986-10.66.881-22.315-6.023-31.322-5.79-7.552-14.175-12.397-23.609-13.644-6.206-.822-12.386-.017-18.036 2.28-12.209-25.031-39.388-39.567-67.097-35.71-8.351-26.828-33.349-45.605-62.055-45.605-16.48 0-32.379 6.322-44.36 17.497-14.385-4.538-29.907-2.936-43.312 4.615-11.013 6.205-19.322 15.753-23.889 27.131-15.069-9.73-35.324-9.182-49.962 2.747-14.035 11.438-18.943 29.778-13.657 46.009-9.807.84-19.224 4.597-27.053 10.978-7.891 6.431-13.539 14.987-16.335 24.746l14.42 4.131c1.948-6.799 5.887-12.764 11.392-17.249 8.061-6.57 18.538-9.15 28.741-7.087l19.533 3.954-12.08-15.851c-9.048-11.873-7.064-28.566 4.516-38.003 11.765-9.588 29.137-7.818 38.727 3.948l10.758 13.201 2.476-16.85c1.792-12.19 9-22.665 19.777-28.736 10.852-6.113 23.6-6.87 34.972-2.079l4.874 2.055 3.57-3.902c9.455-10.33 22.901-16.255 36.892-16.255 24.051 0 44.717 17.128 49.139 40.727l1.481 7.903 7.781-2.027c25.46-6.631 51.757 7.752 59.875 32.746l3.276 10.09 8.42-6.454c9.024-6.921 22-5.207 28.92 3.82 4.934 6.435 5.635 15.207 1.788 22.35l-4.061 7.536 8.006 3.034c7.986 3.026 14.32 9.353 17.376 17.357 3.062 8.019 2.565 16.953-1.361 24.511l-1.666 3.207 1.47 3.302c4.771 10.714 4.571 22.864-.546 33.334l-3.488 7.137 7.325 3.072c12.362 5.187 20.351 17.197 20.351 30.599 0 18.288-14.878 33.166-33.166 33.166-13.754 0-25.881-8.273-30.896-21.079l-2.877-7.347-7.192 3.246c-29.692 13.402-65.419 1.571-81.324-26.94l-5.651-10.132-6.919 9.313c-5.612 7.554-14.22 11.887-23.615 11.887-7.696 0-14.974-2.956-20.492-8.323l-2.579-2.508-3.57.441c-14.827 1.834-29.838-1.607-42.279-9.687l-10.849-7.045-.725 12.915c-1.664 29.664-26.266 52.9-56.007 52.9-8.429 0-16.531-1.823-24.081-5.418l-5.311-2.528-3.722 4.555c-8.152 9.977-20.205 15.698-33.067 15.698-23.532 0-42.678-19.146-42.678-42.678 0-15.416 8.364-29.687 21.828-37.244l6.303-3.537-3.302-6.43c-5.449-10.609-1.729-23.812 8.469-30.056l7.319-4.481-5.422-6.653c-4.486-5.505-7.141-12.143-7.677-19.195l-14.957 1.137c.574 7.551 2.838 14.768 6.62 21.223-10.319 9.808-14.355 24.811-10.272 38.479-14.89 10.769-23.909 28.145-23.909 46.757 0 31.804 25.874 57.678 57.678 57.678 15.463 0 30.059-6.116 40.846-16.954 8.065 3.086 16.563 4.647 25.335 4.647 3.833 0 7.594-.32 11.269-.906l7.357 20.897 48.815 49.314-39.762 99.357c-4.906 12.259-17.276 25.287-30.537 25.287v15h60v-15h-28.287c5.651-5.921 10.032-12.922 12.75-19.714l14.323-35.791 68.721 37.463c.472 6.474 2.86 12.683 6.972 18.042h-29.479v15h59.999v-15c-6.466 0-12.946-2.844-17.335-7.607-3.767-4.087-5.609-9.158-5.19-14.28l8.46-103.296 66.497-61.282 11.698-24.775c9.186.224 18.361-1.164 27.121-4.168 8.539 14.675 24.163 23.817 41.583 23.817 26.559 0 48.166-21.607 48.166-48.166 0-16.951-8.8-32.369-22.932-41.04zm-155.215 37.785c3.926 5.315 8.499 10.074 13.59 14.207l-9.961 17.359-27.13 20.98-24.26-22.123.666-24.122c5.764 2.663 12.083 4.067 18.602 4.067 10.468 0 20.573-3.761 28.493-10.368zm-95.571-6.629c10.512 4.803 22.014 7.227 33.631 7.079l-1.005 36.426 27.397 24.985-21.584 16.691-38.446-30.512-13.89-25.68c6.666-8.319 11.512-18.176 13.897-28.989zm-37.768 67.524-5.871-16.675c6.787-2.645 13.079-6.294 18.678-10.784l13.222 24.446 75.354 59.8-3.452 42.144zm47.292 69.096 49.026 49.527-2.366 28.891-64.066-34.926zm123.309-82.494-61.781 56.937-20.511-16.277 60.188-46.546 10.958-19.097c3.944 2.101 8.083 3.89 12.395 5.313 2.349.775 4.723 1.423 7.109 1.971z"/><path d="m395.194 241.373c13.563 0 24.597-13.15 24.597-29.315s-11.034-29.316-24.597-29.316-24.597 13.151-24.597 29.316 11.035 29.315 24.597 29.315zm0-43.632c5.202 0 9.597 6.557 9.597 14.316s-4.395 14.315-9.597 14.315-9.597-6.556-9.597-14.315 4.395-14.316 9.597-14.316z"/><path d="m255.753 109.456c13.563 0 24.596-13.151 24.596-29.316s-11.033-29.315-24.596-29.315-24.597 13.15-24.597 29.315 11.034 29.316 24.597 29.316zm0-43.632c5.201 0 9.596 6.556 9.596 14.315s-4.395 14.316-9.596 14.316c-5.202 0-9.597-6.557-9.597-14.316s4.395-14.315 9.597-14.315z"/><path d="m330.141 190.587c13.563 0 24.596-13.15 24.596-29.315s-11.033-29.316-24.596-29.316-24.597 13.151-24.597 29.316 11.034 29.315 24.597 29.315zm0-43.632c5.201 0 9.596 6.556 9.596 14.316s-4.395 14.315-9.596 14.315c-5.202 0-9.597-6.556-9.597-14.315 0-7.76 4.394-14.316 9.597-14.316z"/><path d="m249.667 210.483c13.563 0 24.597-13.151 24.597-29.316s-11.034-29.315-24.597-29.315-24.596 13.15-24.596 29.315 11.033 29.316 24.596 29.316zm0-43.631c5.202 0 9.597 6.556 9.597 14.315s-4.395 14.316-9.597 14.316c-5.201 0-9.596-6.557-9.596-14.316s4.395-14.315 9.596-14.315z"/><path d="m169.194 171.384c13.563 0 24.597-13.15 24.597-29.315s-11.034-29.315-24.597-29.315-24.597 13.15-24.597 29.315 11.035 29.315 24.597 29.315zm0-43.631c5.202 0 9.597 6.556 9.597 14.315s-4.395 14.315-9.597 14.315-9.597-6.556-9.597-14.315 4.395-14.315 9.597-14.315z"/><path d="m120.06 197.222c-13.563 0-24.597 13.15-24.597 29.315s11.034 29.315 24.597 29.315 24.597-13.15 24.597-29.315-11.035-29.315-24.597-29.315zm0 43.631c-5.202 0-9.597-6.556-9.597-14.315s4.395-14.315 9.597-14.315 9.597 6.556 9.597 14.315-4.395 14.315-9.597 14.315z"/></g></g></svg>