<?xml version="1.0" encoding="UTF-8"?>
<svg xmlns="http://www.w3.org/2000/svg" xmlns:xlink="http://www.w3.org/1999/xlink" version="1.1" id="Capa_1" x="0px" y="0px" viewBox="0 0 511 511" style="enable-background:new 0 0 511 511;" xml:space="preserve" width="512" height="512">
<g>
	<g>
		<path style="fill:#EEF5FF;" d="M241.081,35.644c10.613,0.067,18.581,9.721,16.69,20.165c-2.937,16.221-7.001,39.406-10.116,60.024&#10;&#9;&#9;&#9;c-2.844,18.828-8.82,70.786,37.01,114.49c51.494,49.104,58.948,115.109,33.249,176.746&#10;&#9;&#9;&#9;c-13.235,31.743-37.856,64.279-52.639,82.268c-7.36,8.956-18.327,14.163-29.919,14.163h-72.471&#10;&#9;&#9;&#9;c-11.592,0-22.559-5.207-29.919-14.163c-14.784-17.99-39.404-50.525-52.639-82.268c-25.699-61.637-18.245-127.642,33.249-176.746&#10;&#9;&#9;&#9;c45.831-43.703,39.855-95.662,37.01-114.49c-3.913-25.901-32.668-55.015-48.913-69.642c-6.859-6.176-10.04-15.449-8.428-24.537v0&#10;&#9;&#9;&#9;c1.94-10.937,13.631-17.189,23.777-12.669C141.103,19.712,185.537,35.292,241.081,35.644z"/>
		<path style="fill:#DFE9FB;" d="M290.567,61.163c-12.456,0-24.312,2.609-35.059,7.299c-2.557,14.473-5.479,31.662-7.853,47.37&#10;&#9;&#9;&#9;c-0.202,1.34-0.421,2.852-0.635,4.512c9.356-14.118,25.378-23.451,43.547-23.451c28.79,0,52.212,23.422,52.212,52.212&#10;&#9;&#9;&#9;c0,28.79-23.422,52.212-52.212,52.212c-13.874,0-26.491-5.45-35.851-14.308c5.851,14.375,15.223,29.27,29.949,43.313&#10;&#9;&#9;&#9;c2.312,2.205,4.532,4.445,6.667,6.716c48.139-0.413,87.177-39.697,87.177-87.933C378.51,100.614,339.059,61.163,290.567,61.163z"/>
		<path style="fill:#FFE17D;" d="M80.326,407.069c13.235,31.743,37.856,64.279,52.639,82.268&#10;&#9;&#9;&#9;c7.36,8.956,18.327,14.163,29.919,14.163h72.471c11.592,0,22.559-5.207,29.919-14.163c14.784-17.99,39.405-50.525,52.639-82.268&#10;&#9;&#9;&#9;c24.545-58.87,18.844-121.723-26.582-170.031H106.909C61.483,285.346,55.781,348.199,80.326,407.069z"/>
		<path style="fill:#FFD164;" d="M265.331,485.5h-132.42c-1.038,0-2.072-0.023-3.104-0.048c1.093,1.357,2.151,2.658,3.159,3.884&#10;&#9;&#9;&#9;c7.36,8.956,18.327,14.163,29.919,14.163h72.471c11.592,0,22.559-5.207,29.919-14.163c1.008-1.227,2.066-2.527,3.159-3.884&#10;&#9;&#9;&#9;C267.402,485.477,266.369,485.5,265.331,485.5z"/>
		<g>
			<path style="fill:#D0E0F7;" d="M295.707,218.743c-6.074-5.792-11.333-11.982-15.797-18.531&#10;&#9;&#9;&#9;&#9;c-9.631-2.01-18.298-6.676-25.194-13.202c5.851,14.375,15.223,29.27,29.949,43.313c2.312,2.205,4.532,4.445,6.667,6.715&#10;&#9;&#9;&#9;&#9;c6.627-0.057,13.081-0.854,19.285-2.307C306.035,229.188,301.062,223.849,295.707,218.743z"/>
			<path style="fill:#D0E0F7;" d="M265.843,103.144c2.317-14.298,4.833-28.687,6.893-40.158c-5.985,1.239-11.751,3.086-17.227,5.476&#10;&#9;&#9;&#9;&#9;c-2.557,14.473-5.479,31.662-7.852,47.37c-0.202,1.34-0.421,2.852-0.635,4.512C251.771,113.176,258.247,107.25,265.843,103.144z"/>
		</g>
		<g>
			<g>
				<path style="fill:#BBF39B;" d="M394.017,373.208c21.709-46.992,2.422-102.126,2.422-102.126s-54.484,21.053-76.194,68.045&#10;&#9;&#9;&#9;&#9;&#9;c-21.709,46.991-2.422,102.126-2.422,102.126S372.308,420.2,394.017,373.208z"/>
			</g>
		</g>
		<path style="fill:#9AE59C;" d="M396.439,271.083c0,0-4.003,1.548-10.264,4.735c4.383,18.544,10.156,56.83-5.562,90.854&#10;&#9;&#9;&#9;c-15.828,34.262-49.076,54.732-65.929,63.309c1.671,7.068,3.14,11.273,3.14,11.273s54.484-21.053,76.193-68.045&#10;&#9;&#9;&#9;C415.726,326.217,396.439,271.083,396.439,271.083z"/>
		<g>
			<g>
				<path style="fill:#BBF39B;" d="M399.851,451.464c32.795-18.088,45.183-58.494,45.183-58.494s-40.784-11.079-73.579,7.009&#10;&#9;&#9;&#9;&#9;&#9;s-45.183,58.494-45.183,58.494S367.056,469.553,399.851,451.464z"/>
			</g>
		</g>
		<path style="fill:#9AE59C;" d="M399.851,433.464c-24.5,13.513-53.455,10.748-66.537,8.484c-4.887,9.5-7.042,16.525-7.042,16.525&#10;&#9;&#9;&#9;s40.784,11.079,73.579-7.009c32.795-18.088,45.183-58.494,45.183-58.494s-2.613-0.709-7.042-1.475&#10;&#9;&#9;&#9;C431.156,404.783,418.975,422.917,399.851,433.464z"/>
		<g>
			<path style="fill:#6FD6A2;" d="M323.094,471.989L323.094,471.989c0-17.403,14.108-31.511,31.511-31.511h30.343&#10;&#9;&#9;&#9;&#9;c17.403,0,31.511,14.108,31.511,31.511v0c0,17.403-14.108,31.511-31.511,31.511h-30.343&#10;&#9;&#9;&#9;&#9;C337.202,503.5,323.094,489.392,323.094,471.989z"/>
		</g>
		<path style="fill:#69C494;" d="M384.948,485.5h-30.343c-14.275,0-26.325-9.494-30.199-22.511c-0.849,2.852-1.311,5.871-1.311,9&#10;&#9;&#9;&#9;l0,0c0,17.403,14.108,31.511,31.511,31.511h30.343c17.403,0,31.511-14.108,31.511-31.511l0,0c0-3.129-0.462-6.148-1.311-9&#10;&#9;&#9;&#9;C411.273,476.006,399.222,485.5,384.948,485.5z"/>
		<g>
			<path style="fill:#6FD6A2;" d="M277.278,494.271L277.278,494.271c-12.306-12.306-12.306-32.257,0-44.563l21.456-21.456&#10;&#9;&#9;&#9;&#9;c12.306-12.306,32.257-12.306,44.563,0v0c12.306,12.306,12.306,32.257,0,44.563l-21.456,21.456&#10;&#9;&#9;&#9;&#9;C309.535,506.576,289.584,506.576,277.278,494.271z"/>
		</g>
		<path style="fill:#69C494;" d="M343.297,428.252L343.297,428.252c-2.134-2.134-4.503-3.89-7.018-5.284&#10;&#9;&#9;&#9;c6.295,11.903,4.435,26.989-5.584,37.008l-21.456,21.456c-10.171,10.171-25.562,11.927-37.546,5.284&#10;&#9;&#9;&#9;c1.437,2.717,3.297,5.268,5.584,7.555h0c12.306,12.306,32.257,12.306,44.563,0l21.456-21.456&#10;&#9;&#9;&#9;C355.603,460.509,355.603,440.558,343.297,428.252z"/>
	</g>
	<g>
		<path style="fill:none;stroke:#000000;stroke-width:15;stroke-linecap:round;stroke-linejoin:round;stroke-miterlimit:10;" d="&#10;&#9;&#9;&#9;M291.333,237.038c48.139-0.413,87.177-39.697,87.177-87.933c0-30.307-15.411-57.083-38.807-72.902"/>
		<path style="fill:none;stroke:#000000;stroke-width:15;stroke-linecap:round;stroke-linejoin:round;stroke-miterlimit:10;" d="&#10;&#9;&#9;&#9;M247.021,120.345c9.356-14.118,25.378-23.451,43.547-23.451c28.79,0,52.212,23.422,52.212,52.212&#10;&#9;&#9;&#9;c0,28.79-23.422,52.212-52.212,52.212c-13.874,0-26.491-5.45-35.851-14.308"/>
		<path style="fill:none;stroke:#000000;stroke-width:15;stroke-linecap:round;stroke-linejoin:round;stroke-miterlimit:10;" d="&#10;&#9;&#9;&#9;M310.624,63.47c-6.444-1.509-13.159-2.307-20.056-2.307c-12.456,0-24.312,2.609-35.059,7.299"/>
		
			<line style="fill:none;stroke:#000000;stroke-width:15;stroke-linecap:round;stroke-linejoin:round;stroke-miterlimit:10;" x1="291.333" y1="237.038" x2="106.905" y2="237.038"/>
		<g>
			<path style="fill:none;stroke:#000000;stroke-width:15;stroke-linecap:round;stroke-linejoin:round;stroke-miterlimit:10;" d="&#10;&#9;&#9;&#9;&#9;M277.278,494.271L277.278,494.271c-12.306-12.306-12.306-32.257,0-44.563l21.456-21.456c12.306-12.306,32.257-12.306,44.563,0v0&#10;&#9;&#9;&#9;&#9;c12.306,12.306,12.306,32.257,0,44.563l-21.456,21.456C309.535,506.576,289.584,506.576,277.278,494.271z"/>
			
				<line style="fill:none;stroke:#000000;stroke-width:15;stroke-linecap:round;stroke-linejoin:round;stroke-miterlimit:10;" x1="323.094" y1="443.213" x2="328.336" y2="448.455"/>
		</g>
		<g>
			
				<line style="fill:none;stroke:#000000;stroke-width:15;stroke-linecap:round;stroke-linejoin:round;stroke-miterlimit:10;" x1="391.594" y1="468.282" x2="391.594" y2="475.696"/>
			<path style="fill:none;stroke:#000000;stroke-width:15;stroke-linecap:round;stroke-linejoin:round;stroke-miterlimit:10;" d="&#10;&#9;&#9;&#9;&#9;M327.705,488.406c5.536,9.052,15.511,15.094,26.899,15.094h30.343c17.403,0,31.511-14.108,31.511-31.511l0,0&#10;&#9;&#9;&#9;&#9;c0-17.403-14.108-31.511-31.511-31.511h-30.343c-1.237,0-2.455,0.079-3.655,0.218"/>
		</g>
		<path style="fill:none;stroke:#000000;stroke-width:15;stroke-linecap:round;stroke-linejoin:round;stroke-miterlimit:10;" d="&#10;&#9;&#9;&#9;M93.786,433.807c12.897,22.222,28.572,42.621,39.18,55.53c7.36,8.956,18.327,14.163,29.919,14.163h72.471&#10;&#9;&#9;&#9;c11.592,0,22.56-5.207,29.919-14.163c1.527-1.858,3.163-3.879,4.877-6.03"/>
		<path style="fill:none;stroke:#000000;stroke-width:15;stroke-linecap:round;stroke-linejoin:round;stroke-miterlimit:10;" d="&#10;&#9;&#9;&#9;M331.197,320.706c-3.948-32.804-18.893-64.028-46.531-90.383c-45.831-43.704-39.855-95.662-37.01-114.49&#10;&#9;&#9;&#9;c3.115-20.619,7.179-43.803,10.116-60.024c1.891-10.443-6.078-20.098-16.69-20.165c-55.544-0.351-99.978-15.931-124.059-26.659&#10;&#9;&#9;&#9;c-10.146-4.52-21.837,1.732-23.778,12.669v0c-1.612,9.087,1.569,18.361,8.428,24.537c16.245,14.627,45,43.741,48.913,69.642&#10;&#9;&#9;&#9;c2.844,18.828,8.82,70.786-37.01,114.49c-51.494,49.104-58.948,115.109-33.249,176.746"/>
		<path style="fill:none;stroke:#000000;stroke-width:15;stroke-linecap:round;stroke-linejoin:round;stroke-miterlimit:10;" d="&#10;&#9;&#9;&#9;M405.426,448.051c28.632-19.291,39.608-55.08,39.608-55.08s-40.784-11.079-73.579,7.009c-12.624,6.963-22.22,17.232-29.254,27.23"/>
		<path style="fill:none;stroke:#000000;stroke-width:15;stroke-linecap:round;stroke-linejoin:round;stroke-miterlimit:10;" d="&#10;&#9;&#9;&#9;M404.096,313.508c-1.321-24.311-7.658-42.425-7.658-42.425s-54.484,21.053-76.193,68.045&#10;&#9;&#9;&#9;c-13.31,28.811-11.209,60.679-7.591,81.028"/>
		<path style="fill:none;stroke:#000000;stroke-width:15;stroke-linecap:round;stroke-linejoin:round;stroke-miterlimit:10;" d="&#10;&#9;&#9;&#9;M379.575,396.132c5.538-6.818,10.525-14.446,14.441-22.923c4.497-9.734,7.235-19.818,8.75-29.689"/>
	</g>
</g>















</svg>
