<svg id="Capa_1" enable-background="new 0 0 512 512" height="512" viewBox="0 0 512 512" width="512" xmlns="http://www.w3.org/2000/svg"><g><g><g><path d="m415.5 477.5h-319v-290h318.628l3.372 3.716v271.284z" fill="#909ba6"/><path d="m107.5 459.5v-272l-14 4.395v289.605h325v-19h-308c-1.657 0-3-1.343-3-3z" fill="#7e8b96"/></g><g><path d="m211.5 40.5-75 1v-22c0-5.523 4.477-10 10-10l2-2h56c5.523 0 10 4.477 10 10v9z" fill="#909ba6"/><path d="m148.5 23.5v-16h-4c-5.523 0-10 4.477-10 10v26h80v-17h-63c-1.657 0-3-1.343-3-3z" fill="#7e8b96"/></g><g><path d="m418.5 154.936-9.245 30.702-92.36 58.213-141.395-6.351-77-59.88v-115.12h320z" fill="#ccf49f"/><path d="m107.5 62.5h-14v93.205l14 32.139z" fill="#b3e59f"/></g><g><path d="m420.5 65.5h-329c-5.523 0-10-4.477-10-10v-3c0-5.523 4.477-10 10-10l2-2h329c5.523 0 10 4.477 10 10v3l-2 2c0 5.523-4.477 10-10 10z" fill="#b9c3cd"/><path d="m93.5 50.5v-10h-4c-5.523 0-10 4.477-10 10v7c0 5.523 4.477 10 10 10h333c5.523 0 10-4.477 10-10v-4h-336c-1.657 0-3-1.343-3-3z" fill="#a2abb8"/></g><g><path d="m420.5 502.5h-329c-5.523 0-10-4.477-10-10v-3c0-5.523 4.477-10 10-10l2-2h329c5.523 0 10 4.477 10 10v3l-2 2c0 5.523-4.477 10-10 10z" fill="#b9c3cd"/><path d="m93.5 487.5v-10h-4c-5.523 0-10 4.477-10 10v7c0 5.523 4.477 10 10 10h333c5.523 0 10-4.477 10-10v-4h-336c-1.657 0-3-1.343-3-3z" fill="#a2abb8"/></g><g><path d="m418.5 154.936c-40.755 48.978-98.627 79.564-162.821 79.564-56.857 0-108.748-24-148.185-63.515l-12.664-9.602v27.319l12.665 16.691c39.437 34.905 91.328 56.107 148.185 56.107 64.195 0 122.066-27.019 162.821-70.284v-36.28z" fill="#fff082"/><path d="m107.494 205.393-.001-34.408c-4.856-4.866-9.529-9.959-13.994-15.28v36.19c4.466 4.7 9.139 9.2 13.995 13.498z" fill="#ffdc64"/></g><g><g><g><path d="m244.434 383.877c-7.557-1.407-23.92-5.648-23.92-5.648-1.781-.854-3.555-1.781-5.309-2.788-21.449-12.317-33.861-32.915-38.263-41.334-.98-1.875.232-4.138 2.335-4.367 5.805-.632 17.083-1.123 30.09 2.122 0 0 8.235 4.369 12.49 6.203z" fill="#b3e59f"/></g><path d="m299.537 349.78 8.216-9.951c9.644-19.037 10.222-36.823 8.189-48.858-.327-1.935-2.406-3.035-4.192-2.221-7.062 3.219-23.467 11.98-35.103 28.204 0 0-3.529 7.808-3.818 8.428l-3.426 4.83s9.298 21.568 9.298 21.568l15.83 5.797c.001 0 5.006-7.797 5.006-7.797z" fill="#b3e59f"/><g fill="#95d6a4"><path d="m209.368 331.862c-1.175 12.071.708 23.971 4.845 34.819 1.69 4.431 4.42 8.813 6.301 11.549 8.093 3.88 16.362 6.24 23.92 7.648l-22.057-49.568-.519-.245c-4.257-1.834-8.455-3.196-12.49-4.203z"/><path d="m285.595 335.221c-1.203-6.824-2.808-11.476-8.947-18.267-2.107 2.938-4.059 6.118-5.77 9.558-.307.618-.605 1.237-.893 1.857l-.58 1.844 9.298 21.568 15.83 5.797 6.005-5.796c2.833-4.011 5.219-8.008 7.217-11.951-6.165-1.79-12.721-4.175-19.84-2.985-1.092.181-2.128-.535-2.32-1.625z"/></g></g><g><path d="m277.123 341.697c3.083 8.084 4.06 16.28 3.199 23.557-1.287 10.873-5.059 17.856-13.663 21.192-14.362 5.569-30.442-3.585-38.547-23.583-11.495-28.363 3.803-44.561 3.803-44.561 1.593-1.257 3.355-2.282 5.28-3.029 14.363-5.568 32.239 6.262 39.928 26.424z" fill="#ccf49f"/><path d="m275.04 368.286c-14.363 5.569-32.239-6.261-39.928-26.423-3.083-8.085-4.059-16.283-3.197-23.561-10.295 8.123-13.462 26.101-6.803 43.561 7.689 20.162 25.565 31.992 39.928 26.423 8.603-3.336 13.99-12.16 15.277-23.033-1.593 1.258-3.352 2.287-5.277 3.033z" fill="#b3e59f"/><path d="m297.192 402.815c-1.062 1.056-2.154 2.053-3.268 2.995 0 0-27.631 18.791-42.807 3.616-10.892-10.892-5.12-31.891 10.18-47.106 6.651-6.614 18.333-11.835 18.333-11.835 9.837-2.569 19.314-1.029 25.488 5.112 10.923 10.861 7.374 32.002-7.926 47.218z" fill="#ccf49f"/><path d="m268.435 400.697c-10.923-10.862-7.374-32.003 7.927-47.219 1.062-1.056 2.155-2.052 3.269-2.994-7.565 1.975-15.341 6.38-21.993 12.994-15.3 15.216-18.849 36.356-7.927 47.219 10.164 10.108 29.278 7.75 44.213-4.888-9.836 2.569-19.315 1.029-25.489-5.112z" fill="#b3e59f"/></g></g><g><path d="m281.833 253.671c0-14.881-17.792-31.872-23.845-37.222-1.138-1.006-2.838-1.006-3.977 0-.757.669-1.754 1.574-2.82 2.579 0 0-19.025 19.631-19.025 34.643 0 16.606 9.566 24.01 23.833 24.01 16.064 0 23.788-12.959 23.788-12.959 1.317-3.219 2.046-6.916 2.046-11.051z" fill="#ffdc64"/><path d="m267 267.681c-14.267 0-25.833-9.404-25.833-26.01 0-7.59 4.687-15.78 10.025-22.643-7.484 7.08-21.025 21.686-21.025 34.643 0 16.606 11.566 26.01 25.833 26.01 10.687 0 19.858-5.349 23.788-14.959-3.771 1.939-8.134 2.959-12.788 2.959z" fill="#ffc850"/></g><g><path d="m329 139c0 6.713-2.81 13.048-7.787 18.658 0 0-22.342 18.842-50.851 18.842-40.317 0-85.362-14.58-85.362-37.5 0-16.17 21.793-30.654 21.793-30.654 12.978-6.736 30.248-10.846 49.207-10.846 40.317 0 73 18.58 73 41.5z" fill="#fff082"/><path d="m272 168.5c-40.317 0-73-18.58-73-41.5 0-6.711 2.818-13.045 7.793-18.654-14.619 7.589-23.793 18.513-23.793 30.654 0 22.92 32.683 41.5 73 41.5 28.513 0 53.196-9.293 65.213-22.842-12.979 6.737-30.254 10.842-49.213 10.842z" fill="#ffdc64"/></g></g><g><path d="m440 57.5v-7c0-9.649-7.851-17.5-17.5-17.5h-79.266c-4.143 0-7.5 3.358-7.5 7.5s3.357 7.5 7.5 7.5h79.266c1.379 0 2.5 1.122 2.5 2.5v7c0 1.378-1.121 2.5-2.5 2.5h-333c-1.379 0-2.5-1.122-2.5-2.5v-7c0-1.378 1.121-2.5 2.5-2.5h218.734c4.143 0 7.5-3.358 7.5-7.5s-3.357-7.5-7.5-7.5h-86.234v-15.5c0-9.649-7.851-17.5-17.5-17.5h-60c-9.649 0-17.5 7.851-17.5 17.5v15.5h-37.5c-9.649 0-17.5 7.851-17.5 17.5v7c0 8.451 6.022 15.521 14 17.147v219.63c0 4.142 3.357 7.5 7.5 7.5s7.5-3.358 7.5-7.5v-84.904c34.535 31.253 77.855 51.448 124.021 57.598 4.715 12.347 16.156 20.21 30.979 20.21 14.858 0 26.318-7.902 31.012-20.301 46.214-6.295 89.521-26.661 123.988-58.09v261.21h-63.957c-4.143 0-7.5 3.358-7.5 7.5s3.357 7.5 7.5 7.5h75.457c1.379 0 2.5 1.122 2.5 2.5v7c0 1.378-1.121 2.5-2.5 2.5h-333c-1.379 0-2.5-1.122-2.5-2.5v-7c0-1.378 1.121-2.5 2.5-2.5h222.521c4.143 0 7.5-3.358 7.5-7.5s-3.357-7.5-7.5-7.5h-211.021v-140.723c0-4.142-3.357-7.5-7.5-7.5s-7.5 3.358-7.5 7.5v141.076c-7.978 1.626-14 8.696-14 17.147v7c0 9.649 7.851 17.5 17.5 17.5h333c9.649 0 17.5-7.851 17.5-17.5v-7c0-8.451-6.022-15.521-14-17.147v-395.706c7.978-1.626 14-8.696 14-17.147zm-298-40c0-1.378 1.121-2.5 2.5-2.5h60c1.379 0 2.5 1.122 2.5 2.5v15.5h-65zm-41 171.03v-13.745c34.837 35.594 78.333 58.29 124.953 65.068-1.696 3.79-2.864 7.712-3.188 11.64-46.156-7.098-89.039-29.235-121.765-62.963zm155 83.651c-8.862 0-18.333-4.862-18.333-18.51 0-8.699 9.869-20.889 18.315-28.906 7.436 7.096 18.351 19.533 18.351 28.906 0 13.662-9.876 18.51-18.333 18.51zm33.225-20.787c-.338-3.927-1.516-7.848-3.22-11.635 18.942-2.808 37.457-8.241 55.177-16.224 3.776-1.701 5.458-6.142 3.757-9.918-1.702-3.777-6.143-5.459-9.919-3.757-18.486 8.329-37.894 13.678-57.742 15.923-7.104-9.014-14.999-15.601-16.546-16.859-2.756-2.239-6.705-2.239-9.461 0-1.55 1.26-9.475 7.871-16.591 16.915-50.745-5.586-98.011-31.483-133.678-73.277v-77.562h310v76.816c-13.777 16.28-29.417 30.31-46.526 41.711-3.446 2.297-4.379 6.953-2.082 10.4 1.445 2.169 3.823 3.342 6.248 3.342 1.429 0 2.874-.408 4.152-1.26 13.685-9.118 26.478-19.803 38.208-31.876v13.734c-32.658 33.943-75.546 56.279-121.777 63.527z"/><path d="m256 90c-45.141 0-80.5 21.523-80.5 49s35.359 49 80.5 49 80.5-21.523 80.5-49-35.359-49-80.5-49zm0 83c-35.505 0-65.5-15.57-65.5-34s29.995-34 65.5-34 65.5 15.57 65.5 34-29.995 34-65.5 34z"/><path d="m322.506 285.584c-.488-2.085-1.846-3.862-3.729-4.882-1.884-1.021-4.113-1.187-6.126-.458-1.239.449-28.175 10.458-44.373 35.705-8.1-7.355-22.354-12.291-33.794-7.668-8.094 3.138-14.023 9.642-17.35 18.008-23.008-7.452-42.663-3.472-43.576-3.28-2.201.464-4.078 1.892-5.112 3.889-1.035 1.998-1.118 4.354-.228 6.419.557 1.291 13.972 31.814 43.252 48.627 7.355 4.223 15.574 7.473 24.486 9.729-.671 7.834 2.191 18.505 8.466 24.341 5.805 5.773 13.56 8.571 21.971 8.571 11.953 0 25.228-5.654 36.087-16.454h.001c10.47-10.413 16.475-23.538 16.475-36.01 0-8.696-2.937-16.224-8.488-21.78 17.697-28.785 14.425-54.575 12.038-64.757zm-13.282 12.86c.631 10.364-.827 26.726-11.789 44.432-3.875-1.048-8.03-1.388-12.31-1.025-1.268-3.84-3.278-8.619-6.53-13.881 8.23-15.153 21.813-24.638 30.629-29.526zm-69.318 23.823c14.004-3.915 25.174 9.523 30.662 23.369-6.373 2.763-12.618 6.954-18.22 12.525-4.737 4.711-8.549 9.98-11.316 15.49-3.687-3.898-6.782-8.872-8.913-14.461-6.105-16.01-2.54-32.919 7.787-36.923zm-52.773 14.535c6.938-.074 16.655.704 26.972 4.295-.23 8.477 1.442 18.907 6.264 28.617-15.014-7.815-27.867-23.838-33.236-32.912zm104.771 60.695c-12.152 12.083-29.051 15.692-36.905 7.883-4.338-5.833-4.932-9.353-3.299-17.673 1.624-6.55 5.571-13.286 11.226-18.91 7.795-7.751 17.543-12.015 25.604-12.015 4.506 0 8.485 1.333 11.301 4.133 3.41 3.391 4.126 7.967 4.126 11.208-.001 8.382-4.507 17.868-12.053 25.374z"/><path d="m239.75 447.5c0 4.142 3.357 7.5 7.5 7.5h81.75c4.143 0 7.5-3.358 7.5-7.5s-3.357-7.5-7.5-7.5h-81.75c-4.143 0-7.5 3.358-7.5 7.5z"/><path d="m183 440c-4.143 0-7.5 3.358-7.5 7.5s3.357 7.5 7.5 7.5h34.25c4.143 0 7.5-3.358 7.5-7.5s-3.357-7.5-7.5-7.5z"/><path d="m277 131.5h-42c-4.143 0-7.5 3.358-7.5 7.5s3.357 7.5 7.5 7.5h42c4.143 0 7.5-3.358 7.5-7.5s-3.357-7.5-7.5-7.5z"/></g></g></svg>